<?xml version="1.0" encoding="UTF-8" standalone="no"?>
<!DOCTYPE svg PUBLIC "-//W3C//DTD SVG 1.1//EN" "http://www.w3.org/Graphics/SVG/1.1/DTD/svg11.dtd">
<svg version="1.1" xmlns="http://www.w3.org/2000/svg" xmlns:xlink="http://www.w3.org/1999/xlink" preserveAspectRatio="xMidYMid meet" viewBox="0 0 100 69.99" width="100" height="69.99">
	<defs>
		<g id="add_to_playlist">
			<path d="M100 39.99L100 49.99L80 49.99L80 69.99L70 69.99L70 49.99L49.99 49.99L49.99 39.99L70 39.99L70 19.99L80 19.99L80 39.99L100 39.99ZM0 49.99L0 39.99L40 39.99L40 49.99L0 49.99ZM0 30L0 20L60.01 20L60.01 30L0 30ZM0 10L0 0L60.01 0L60.01 10L0 10Z" id="b6yu1WgABN"></path>
			<path d="M-7.52 62.46L-7.52 62.46L-7.52 62.46L-7.52 62.46L-7.52 62.46L-7.52 62.46L-7.52 62.46L-7.52 62.46L-7.52 62.46L-7.52 62.46L-7.52 62.46L-7.52 62.46L-7.52 62.46L-7.52 62.46L-7.52 62.46L-7.52 62.46L-7.52 62.46L-7.52 62.46L-7.52 62.46L-7.52 62.46L-7.52 62.46L-7.52 62.46L-7.52 62.46L-7.52 62.46L-7.52 62.46L-7.52 62.46L-7.52 62.46L-7.52 62.46L-7.52 62.46L-7.52 62.46L-7.52 62.46L-7.52 62.46L-7.52 62.46L-7.52 62.46L-7.52 62.46L-7.52 62.46L-7.52 62.46L-7.52 62.46L-7.52 62.46L-7.52 62.55L-7.52 62.55L-7.52 62.55L-7.52 62.55L-7.52 62.55L-7.52 62.55L-7.52 62.55L-7.52 62.55L-7.52 62.55L-7.52 62.55L-7.52 62.55L-7.52 62.55L-7.52 62.55L-7.52 62.55L-7.52 62.55L-7.52 62.55L-7.52 62.55L-7.52 62.55L-7.52 62.55L-7.52 62.55L-7.52 62.55L-7.52 62.55L-7.52 62.55L-7.52 62.55L-7.52 62.55L-7.52 62.55L-7.52 62.55L-7.52 62.55L-7.52 62.55L-7.52 62.55L-7.52 62.55L-7.52 62.55L-7.52 62.55L-7.52 62.55L-7.52 62.55L-7.52 62.55L-7.52 62.55L-7.52 62.55L-7.52 62.55L-7.52 62.55L-7.52 62.55L-7.52 62.55L-7.52 62.62L-7.52 62.62L-7.52 62.62L-7.52 62.62L-7.52 62.62L-7.52 62.62L-7.52 62.62L-7.52 62.62L-7.52 62.62L-7.52 62.62L-7.52 62.62L-7.52 62.62L-7.52 62.62L-7.52 62.62L-7.52 62.62L-7.52 62.62L-7.52 62.62L-7.52 62.62L-7.52 62.62L-7.52 62.62L-7.52 62.62L-7.52 62.62L-7.52 62.62L-7.52 62.62L-7.52 62.62L-7.52 62.62L-7.52 62.62L-7.52 62.62L-7.52 62.62L-7.52 62.62L-7.52 62.62L-7.52 62.62L-7.52 62.62L-7.52 62.62L-7.52 62.62L-7.52 62.62L-7.52 62.62L-7.52 62.62L-7.52 62.62L-7.52 62.62L-7.52 62.62L-7.52 62.62L-7.52 62.7L-7.52 62.7L-7.52 62.7L-7.52 62.7L-7.52 62.7L-7.52 62.7L-7.52 62.7L-7.52 62.7L-7.52 62.7L-7.52 62.7L-7.52 62.7L-7.52 62.7L-7.52 62.7L-7.52 62.7L-7.52 62.7L-7.52 62.7L-7.52 62.7L-7.52 62.7L-7.52 62.7L-7.52 62.7L-7.52 62.7L-7.52 62.7L-7.52 62.7L-7.52 62.7L-7.52 62.7L-7.52 62.7L-7.52 62.71L-7.52 62.71L-7.52 62.71L-7.52 62.71L-7.52 62.71L-7.52 62.71L-7.52 62.71L-7.52 62.71L-7.52 62.71L-7.52 62.71L-7.52 62.71L-7.52 62.71L-7.52 62.71L-7.52 62.71L-7.52 62.71L-7.52 62.71L-7.52 62.71L-7.52 62.71L-7.52 62.71L-7.52 62.71L-7.52 62.71L-7.52 62.71L-7.52 62.71L-7.52 62.71L-7.52 62.71L-7.52 62.71L-7.52 62.71L-7.52 62.71L-7.52 62.71L-7.52 62.71L-7.52 62.7L-7.52 62.7L-7.52 62.7L-7.52 62.7L-7.52 62.7L-7.52 62.7L-7.52 62.7L-7.52 62.7L-7.52 62.7L-7.52 62.7L-7.52 62.7L-7.52 62.7L-7.52 62.7L-7.52 62.7L-7.52 62.7L-7.52 62.7L-7.52 62.7L-7.52 62.7L-7.52 62.7L-7.52 62.7L-7.52 62.7L-7.52 62.7L-7.52 62.7L-7.52 62.7L-7.52 62.7L-7.52 62.7L-7.52 62.62L-7.52 62.62L-7.52 62.62L-7.52 62.62L-7.52 62.62L-7.52 62.62L-7.52 62.62L-7.52 62.62L-7.52 62.62L-7.52 62.62L-7.52 62.62L-7.52 62.62L-7.52 62.62L-7.52 62.62L-7.52 62.62L-7.52 62.62L-7.52 62.62L-7.52 62.62L-7.52 62.62L-7.52 62.62L-7.52 62.62L-7.52 62.62L-7.52 62.62L-7.52 62.62L-7.52 62.62L-7.52 62.62L-7.52 62.62L-7.52 62.62L-7.52 62.62L-7.52 62.62L-7.52 62.62L-7.52 62.62L-7.52 62.62L-7.52 62.62L-7.52 62.62L-7.52 62.62L-7.52 62.62L-7.52 62.62L-7.52 62.62L-7.52 62.62L-7.52 62.62L-7.52 62.62L-7.52 62.55L-7.52 62.55L-7.52 62.55L-7.52 62.55L-7.52 62.55L-7.52 62.55L-7.52 62.55L-7.52 62.55L-7.52 62.55L-7.52 62.55L-7.52 62.55L-7.52 62.55L-7.52 62.55L-7.52 62.55L-7.52 62.55L-7.52 62.55L-7.52 62.55L-7.52 62.55L-7.52 62.55L-7.52 62.55L-7.52 62.55L-7.52 62.55L-7.52 62.55L-7.52 62.55L-7.52 62.55L-7.52 62.55L-7.52 62.55L-7.52 62.55L-7.52 62.55L-7.52 62.55L-7.52 62.55L-7.52 62.55L-7.52 62.55L-7.52 62.55L-7.52 62.55L-7.52 62.55L-7.52 62.55L-7.52 62.55L-7.52 62.55L-7.52 62.55L-7.52 62.55L-7.52 62.55L-7.52 62.46L-7.52 62.46L-7.52 62.46L-7.52 62.46L-7.52 62.46L-7.52 62.46L-7.52 62.46L-7.52 62.46L-7.52 62.46L-7.52 62.46L-7.52 62.46L-7.52 62.46L-7.52 62.46L-7.52 62.46L-7.52 62.46L-7.52 62.46L-7.52 62.46L-7.52 62.46L-7.52 62.46L-7.52 62.46L-7.52 62.46L-7.52 62.46L-7.52 62.46L-7.52 62.46L-7.52 62.46L-7.52 62.46L-7.52 62.46L-7.52 62.46L-7.52 62.46L-7.52 62.46L-7.52 62.46L-7.52 62.46L-7.52 62.46L-7.52 62.46L-7.52 62.46L-7.52 62.46L-7.52 62.46L-7.52 62.46L-7.52 62.46L-7.52 62.46L-7.52 62.46L-7.52 62.46L-7.52 62.46L-7.52 62.46Z" id="e2caPLkj4t"></path>
		</g>
	</defs>
	<g>
		<g>
			<g>
				<use xlink:href="#b6yu1WgABN" opacity="1" fill="#000000" fill-opacity="1"></use>
				<g>
					<use xlink:href="#b6yu1WgABN" opacity="1" fill-opacity="0" stroke="#000000" stroke-width="1" stroke-opacity="0"></use>
				</g>
			</g>
			<g>
			<use xlink:href="#e2caPLkj4t" opacity="1" fill="#000000" fill-opacity="1"></use>
			</g>
		</g>
	</g>
</svg>