<?xml version="1.0" encoding="UTF-8" standalone="no"?>
<!DOCTYPE svg PUBLIC "-//W3C//DTD SVG 1.1//EN" "http://www.w3.org/Graphics/SVG/1.1/DTD/svg11.dtd">
<svg version="1.1" xmlns="http://www.w3.org/2000/svg" xmlns:xlink="http://www.w3.org/1999/xlink" preserveAspectRatio="xMidYMid meet" viewBox="0 0 100 100" width="100" height="100"><defs><path d="M90.72 100L100 90.72L84.54 78.35L100 62.37L62.37 62.37L62.37 100L78.35 84.54L90.72 100Z" id="aEg2NX3mC"></path><path d="M37.63 37.63L37.63 0L23.2 14.43L9.28 0L0.52 9.28L14.43 23.2L0 37.63L37.63 37.63Z" id="a1M2JIGWY4"></path><path d="M8.76 100L23.2 84.54L37.63 100L37.63 62.37L0 62.37L14.43 78.35L0 90.72L8.76 100Z" id="a3kHJRHg7G"></path><path d="M100 37.63L84.54 23.2L100 9.28L90.72 0L78.35 14.43L62.37 0L62.37 37.63L100 37.63Z" id="bS8dqKMER"></path></defs><g><g><g><use xlink:href="#aEg2NX3mC" opacity="1" fill="#000000" fill-opacity="1"></use><g><use xlink:href="#aEg2NX3mC" opacity="1" fill-opacity="0" stroke="#000000" stroke-width="1" stroke-opacity="0"></use></g></g><g><use xlink:href="#a1M2JIGWY4" opacity="1" fill="#000000" fill-opacity="1"></use><g><use xlink:href="#a1M2JIGWY4" opacity="1" fill-opacity="0" stroke="#000000" stroke-width="1" stroke-opacity="0"></use></g></g><g><use xlink:href="#a3kHJRHg7G" opacity="1" fill="#000000" fill-opacity="1"></use><g><use xlink:href="#a3kHJRHg7G" opacity="1" fill-opacity="0" stroke="#000000" stroke-width="1" stroke-opacity="0"></use></g></g><g><use xlink:href="#bS8dqKMER" opacity="1" fill="#000000" fill-opacity="1"></use><g><use xlink:href="#bS8dqKMER" opacity="1" fill-opacity="0" stroke="#000000" stroke-width="1" stroke-opacity="0"></use></g></g></g></g></svg>