<?xml version="1.0" encoding="UTF-8" standalone="no"?>
<!DOCTYPE svg PUBLIC "-//W3C//DTD SVG 1.1//EN" "http://www.w3.org/Graphics/SVG/1.1/DTD/svg11.dtd">
<svg version="1.1" xmlns="http://www.w3.org/2000/svg" xmlns:xlink="http://www.w3.org/1999/xlink" preserveAspectRatio="xMidYMid meet" viewBox="0 0 100 100" width="100" height="100"><defs><path d="M71.96 62.23L62.43 71.81L77.78 84.57L62.43 100L100 100L100 62.23L84.66 78.19L71.96 62.23Z" id="cMMdticrn"></path><path d="M0 0L0 37.23L14.81 22.87L28.57 37.23L37.57 28.19L23.28 14.36L37.57 0L0 0Z" id="a1899JJKJ6"></path><path d="M29.1 62.23L14.81 78.19L0 62.23L0 100L37.57 100L23.28 84.57L37.57 71.81L29.1 62.23Z" id="bbLx3AE9V"></path><path d="M62.43 0L77.78 14.36L62.43 28.19L71.96 37.23L84.66 22.87L100 37.23L100 0L62.43 0Z" id="b2piEl0Ddw"></path></defs><g><g><g><use xlink:href="#cMMdticrn" opacity="1" fill="#000000" fill-opacity="1"></use><g><use xlink:href="#cMMdticrn" opacity="1" fill-opacity="0" stroke="#000000" stroke-width="1" stroke-opacity="0"></use></g></g><g><use xlink:href="#a1899JJKJ6" opacity="1" fill="#000000" fill-opacity="1"></use><g><use xlink:href="#a1899JJKJ6" opacity="1" fill-opacity="0" stroke="#000000" stroke-width="1" stroke-opacity="0"></use></g></g><g><use xlink:href="#bbLx3AE9V" opacity="1" fill="#000000" fill-opacity="1"></use><g><use xlink:href="#bbLx3AE9V" opacity="1" fill-opacity="0" stroke="#000000" stroke-width="1" stroke-opacity="0"></use></g></g><g><use xlink:href="#b2piEl0Ddw" opacity="1" fill="#000000" fill-opacity="1"></use><g><use xlink:href="#b2piEl0Ddw" opacity="1" fill-opacity="0" stroke="#000000" stroke-width="1" stroke-opacity="0"></use></g></g></g></g></svg>