<?xml version="1.0" encoding="UTF-8" standalone="no"?>
<!DOCTYPE svg PUBLIC "-//W3C//DTD SVG 1.1//EN" "http://www.w3.org/Graphics/SVG/1.1/DTD/svg11.dtd">
<svg version="1.1" xmlns="http://www.w3.org/2000/svg" xmlns:xlink="http://www.w3.org/1999/xlink" preserveAspectRatio="xMidYMid meet" viewBox="0 0 78.17 100" width="78.17" height="100"><defs><path d="M71 0.18L71.34 0.29L71.68 0.4L72.01 0.53L72.34 0.67L72.66 0.82L72.97 0.98L73.28 1.15L73.58 1.33L73.87 1.51L74.16 1.71L74.44 1.92L74.71 2.13L74.98 2.35L75.23 2.58L75.48 2.82L75.72 3.07L75.95 3.32L76.17 3.58L76.38 3.85L76.58 4.12L76.77 4.4L76.95 4.69L77.11 4.98L77.27 5.28L77.41 5.58L77.55 5.89L77.67 6.2L77.78 6.52L77.87 6.84L77.96 7.17L78.03 7.5L78.08 7.83L78.13 8.17L78.15 8.51L78.17 8.85L78.17 9.2L78.15 9.55L78.12 9.9L78.12 100L39.06 83.33L0 99.48L0 10.42L0 10.4L0.01 10.34L0.03 10.25L0.05 10.13L0.08 9.97L0.12 9.78L0.17 9.57L0.23 9.33L0.3 9.07L0.37 8.79L0.46 8.49L0.56 8.17L0.67 7.83L0.8 7.48L0.93 7.12L1.08 6.75L1.25 6.37L1.42 5.99L1.62 5.6L1.82 5.21L2.05 4.82L2.28 4.43L2.54 4.05L2.81 3.67L3.1 3.3L3.41 2.93L3.74 2.59L4.08 2.25L4.45 1.93L4.83 1.63L5.24 1.34L5.67 1.08L6.11 0.85L6.58 0.63L7.08 0.45L7.59 0.29L8.13 0.17L8.7 0.08L9.28 0.02L9.9 0L70.31 0L70.66 0.08L71 0.18ZM33.85 37.5L13.54 37.5L13.54 48.44L33.85 48.44L33.85 68.75L44.27 68.75L44.27 49.48L66.14 48.96L66.14 38.54L44.27 38.02L44.27 17.19L33.85 17.19L33.85 37.5Z" id="b97YGNGKV"></path></defs><g><g><g><use xlink:href="#b97YGNGKV" opacity="1" fill="#000000" fill-opacity="1"></use><g><use xlink:href="#b97YGNGKV" opacity="1" fill-opacity="0" stroke="#000000" stroke-width="1" stroke-opacity="0"></use></g></g></g></g></svg>