<?xml version="1.0" encoding="UTF-8" standalone="no"?>
<!DOCTYPE svg PUBLIC "-//W3C//DTD SVG 1.1//EN" "http://www.w3.org/Graphics/SVG/1.1/DTD/svg11.dtd">
<svg version="1.1" xmlns="http://www.w3.org/2000/svg" xmlns:xlink="http://www.w3.org/1999/xlink" preserveAspectRatio="xMidYMid meet" viewBox="0 0 79.08 100" width="79.08" height="100"><defs><path d="M26.02 0C26.02 0 26.02 0 26.02 0C26.02 60 26.02 93.33 26.02 100C26.02 100 26.02 100 26.02 100C10.41 100 1.73 100 0 100C0 100 0 100 0 100C0 40 0 6.67 0 0C0 0 0 0 0 0C15.61 0 24.29 0 26.02 0Z" id="a8JcLRrqt"></path><path d="M79.08 0C79.08 0 79.08 0 79.08 0C79.08 60 79.08 93.33 79.08 100C79.08 100 79.08 100 79.08 100C63.47 100 54.79 100 53.06 100C53.06 100 53.06 100 53.06 100C53.06 40 53.06 6.67 53.06 0C53.06 0 53.06 0 53.06 0C68.67 0 77.35 0 79.08 0Z" id="b2rvj0JAhq"></path></defs><g><g><g><use xlink:href="#a8JcLRrqt" opacity="1" fill="#000000" fill-opacity="1"></use><g><use xlink:href="#a8JcLRrqt" opacity="1" fill-opacity="0" stroke="#000000" stroke-width="1" stroke-opacity="0"></use></g></g><g><use xlink:href="#b2rvj0JAhq" opacity="1" fill="#000000" fill-opacity="1"></use><g><use xlink:href="#b2rvj0JAhq" opacity="1" fill-opacity="0" stroke="#000000" stroke-width="1" stroke-opacity="0"></use></g></g></g></g></svg>