<?xml version="1.0" encoding="UTF-8" standalone="no"?>
<!DOCTYPE svg PUBLIC "-//W3C//DTD SVG 1.1//EN" "http://www.w3.org/Graphics/SVG/1.1/DTD/svg11.dtd">
<svg version="1.1" xmlns="http://www.w3.org/2000/svg" xmlns:xlink="http://www.w3.org/1999/xlink" preserveAspectRatio="xMidYMid meet" viewBox="0 0 35.71 100" width="35.71" height="100"><defs><path d="M610.65 20.37C609.94 21.08 609.11 21.43 608.14 21.43L601 21.43L601 78.57C605.28 78.57 607.66 78.57 608.14 78.57C609.59 78.57 610.4 79.53 610.65 79.63C611.71 80.69 611.6 81.89 611.71 82.14C611.71 83.11 611.36 83.95 610.65 84.65C602.08 93.23 597.32 97.99 596.37 98.94C595.31 100 594.11 99.89 593.86 100C592.89 100 592.05 99.65 591.34 98.94C582.77 90.37 578.01 85.61 577.06 84.65C576 83.59 576.11 82.39 576 82.14C576 80.69 576.95 79.88 577.06 79.63C577.77 78.92 578.6 78.57 579.57 78.57L586.71 78.57L586.71 21.43C582.43 21.43 580.05 21.43 579.57 21.43C578.12 21.43 577.31 20.47 577.06 20.37C576 19.31 576.11 18.11 576 17.86C576 16.89 576.35 16.05 577.06 15.35C585.63 6.77 590.39 2.01 591.34 1.06C592.4 0 593.6 0.11 593.86 0C594.82 0 595.66 0.35 596.37 1.06C604.94 9.63 609.7 14.39 610.65 15.35C611.36 16.05 611.71 16.89 611.71 17.86C611.07 19.36 610.72 20.2 610.65 20.37Z" id="a1jslybhsS"></path><path d="M34.65 20.37C33.94 21.08 33.11 21.43 32.14 21.43L25 21.43L25 78.57C29.28 78.57 31.66 78.57 32.14 78.57C33.59 78.57 34.4 79.53 34.65 79.63C35.71 80.69 35.6 81.89 35.71 82.14C35.71 83.11 35.36 83.95 34.65 84.65C26.08 93.23 21.32 97.99 20.37 98.94C19.31 100 18.11 99.89 17.85 100C16.89 100 16.05 99.65 15.34 98.94C6.77 90.37 2.01 85.61 1.06 84.65C0 83.59 0.11 82.39 0 82.14C0 80.69 0.95 79.88 1.06 79.63C1.77 78.92 2.6 78.57 3.57 78.57L10.71 78.57L10.71 21.43C6.43 21.43 4.05 21.43 3.57 21.43C2.12 21.43 1.31 20.47 1.06 20.37C0 19.31 0.11 18.11 0 17.86C0 16.89 0.35 16.05 1.06 15.35C9.63 6.77 14.39 2.01 15.34 1.06C16.4 0 17.6 0.11 17.85 0C18.82 0 19.66 0.35 20.37 1.06C28.94 9.63 33.7 14.39 34.65 15.35C35.36 16.05 35.71 16.89 35.71 17.86C35.07 19.36 34.72 20.2 34.65 20.37Z" id="b1nWrT12tP"></path></defs><g><g><g><use xlink:href="#a1jslybhsS" opacity="1" fill="#000000" fill-opacity="1"></use><g><use xlink:href="#a1jslybhsS" opacity="1" fill-opacity="0" stroke="#000000" stroke-width="1" stroke-opacity="0"></use></g></g><g><use xlink:href="#b1nWrT12tP" opacity="1" fill="#000000" fill-opacity="1"></use></g></g></g></svg>