<?xml version="1.0" encoding="UTF-8" standalone="no"?>
<!DOCTYPE svg PUBLIC "-//W3C//DTD SVG 1.1//EN" "http://www.w3.org/Graphics/SVG/1.1/DTD/svg11.dtd">
<svg version="1.1" xmlns="http://www.w3.org/2000/svg" xmlns:xlink="http://www.w3.org/1999/xlink" preserveAspectRatio="xMidYMid meet" viewBox="0 0 100 100" width="100" height="100"><defs><path d="M62.06 14.62L62.14 14.66L62.22 14.7L62.31 14.74L62.39 14.78L62.48 14.82L62.57 14.86L62.66 14.9L62.75 14.93L62.84 14.97L62.94 15.01L63.03 15.05L63.12 15.09L63.22 15.13L63.32 15.17L63.41 15.21L63.51 15.25L63.61 15.29L63.7 15.33L63.9 15.4L64 15.44L64.09 15.48L64.19 15.52L64.29 15.56L64.38 15.6L64.48 15.64L64.57 15.68L64.67 15.72L64.76 15.76L64.85 15.79L64.95 15.83L65.04 15.87L65.12 15.91L65.21 15.95L65.3 15.99L65.38 16.03L65.46 16.07L65.55 16.11L65.62 16.15L80.73 9.9L89.58 18.75L83.33 33.85L83.37 33.93L83.41 34.01L83.45 34.1L83.49 34.18L83.53 34.27L83.57 34.35L83.61 34.44L83.65 34.53L83.68 34.62L83.72 34.72L83.76 34.81L83.8 34.9L83.84 35L83.88 35.09L83.92 35.19L83.96 35.29L84 35.38L84.04 35.48L84.08 35.58L84.15 35.77L84.19 35.87L84.23 35.97L84.27 36.07L84.31 36.16L84.35 36.26L84.39 36.36L84.43 36.45L84.47 36.54L84.51 36.64L84.54 36.73L84.58 36.82L84.62 36.91L84.66 37L84.7 37.09L84.74 37.17L84.78 37.26L84.82 37.34L84.86 37.42L84.9 37.5L100 43.75L100 56.25L83.85 62.5L83.82 62.58L83.78 62.66L83.74 62.74L83.7 62.83L83.66 62.91L83.62 63L83.58 63.09L83.54 63.18L83.5 63.27L83.46 63.36L83.42 63.46L83.39 63.55L83.35 63.64L83.31 63.74L83.27 63.84L83.23 63.93L83.19 64.03L83.15 64.13L83.11 64.23L83.03 64.42L82.99 64.52L82.96 64.62L82.92 64.71L82.88 64.81L82.84 64.91L82.8 65L82.76 65.1L82.72 65.19L82.68 65.28L82.64 65.38L82.6 65.47L82.57 65.56L82.53 65.65L82.49 65.73L82.45 65.82L82.41 65.9L82.37 65.99L82.33 66.07L82.29 66.15L88.54 81.25L80.21 89.58L65.1 83.33L65.03 83.37L64.94 83.41L64.86 83.45L64.78 83.49L64.69 83.53L64.6 83.57L64.52 83.61L64.43 83.65L64.33 83.68L64.24 83.72L64.15 83.76L64.05 83.8L63.96 83.84L63.86 83.88L63.77 83.92L63.67 83.96L63.57 84L63.48 84.04L63.38 84.08L63.18 84.15L63.09 84.19L62.99 84.23L62.89 84.27L62.8 84.31L62.7 84.35L62.6 84.39L62.51 84.43L62.41 84.47L62.32 84.51L62.23 84.54L62.14 84.58L62.05 84.62L61.96 84.66L61.87 84.7L61.79 84.74L61.7 84.78L61.62 84.82L61.54 84.86L61.46 84.9L55.21 100L42.71 100L36.46 84.38L36.38 84.34L36.3 84.3L36.22 84.26L36.13 84.22L36.05 84.18L35.96 84.14L35.87 84.1L35.78 84.06L35.69 84.02L35.6 83.98L35.5 83.95L35.41 83.91L35.31 83.87L35.22 83.83L35.12 83.79L35.02 83.75L34.93 83.71L34.83 83.67L34.73 83.63L34.54 83.55L34.44 83.52L34.34 83.48L34.25 83.44L34.15 83.4L34.05 83.36L33.96 83.32L33.86 83.28L33.77 83.24L33.68 83.2L33.58 83.16L33.49 83.13L33.4 83.09L33.31 83.05L33.23 83.01L33.14 82.97L33.06 82.93L32.97 82.89L32.89 82.85L32.81 82.81L18.23 89.06L9.9 80.73L16.15 66.15L16.11 66.07L16.07 65.99L16.03 65.9L15.99 65.82L15.95 65.73L15.91 65.65L15.87 65.56L15.83 65.47L15.79 65.38L15.76 65.28L15.72 65.19L15.68 65.1L15.64 65L15.6 64.91L15.56 64.81L15.52 64.71L15.48 64.62L15.44 64.52L15.4 64.42L15.33 64.23L15.29 64.13L15.25 64.03L15.21 63.93L15.17 63.84L15.13 63.74L15.09 63.64L15.05 63.55L15.01 63.46L14.97 63.36L14.93 63.27L14.9 63.18L14.86 63.09L14.82 63L14.78 62.91L14.74 62.83L14.7 62.74L14.66 62.66L14.62 62.58L14.58 62.5L0 56.25L0 43.75L15.1 37.5L15.11 37.48L15.11 37.45L15.12 37.41L15.13 37.37L15.14 37.31L15.15 37.25L15.16 37.18L15.18 37.1L15.19 37.01L15.21 36.92L15.23 36.83L15.25 36.72L15.27 36.62L15.3 36.51L15.32 36.4L15.35 36.29L15.37 36.17L15.4 36.05L15.43 35.94L15.46 35.82L15.49 35.7L15.52 35.59L15.55 35.47L15.59 35.36L15.62 35.26L15.66 35.15L15.69 35.05L15.73 34.95L15.76 34.86L15.8 34.78L15.84 34.7L15.88 34.63L15.91 34.56L15.95 34.51L15.99 34.46L16.03 34.43L16.07 34.4L16.11 34.38L16.15 34.38L9.9 19.79L18.75 10.42L33.33 16.15L33.41 16.11L33.49 16.07L33.58 16.03L33.66 15.99L33.75 15.95L33.83 15.91L33.92 15.87L34.01 15.83L34.1 15.79L34.2 15.76L34.29 15.72L34.38 15.68L34.48 15.64L34.57 15.6L34.67 15.56L34.77 15.52L34.86 15.48L34.96 15.44L35.06 15.4L35.25 15.33L35.35 15.29L35.45 15.25L35.55 15.21L35.64 15.17L35.74 15.13L35.83 15.09L35.93 15.05L36.02 15.01L36.12 14.97L36.21 14.93L36.3 14.9L36.39 14.86L36.48 14.82L36.57 14.78L36.65 14.74L36.74 14.7L36.82 14.66L36.9 14.62L36.98 14.58L43.23 0L55.73 0L61.98 14.58L62.06 14.62ZM47.33 31.96L46.04 32.18L44.79 32.49L43.57 32.89L42.38 33.36L41.24 33.91L40.15 34.53L39.1 35.22L38.11 35.98L37.17 36.81L36.28 37.69L35.46 38.63L34.7 39.62L34.01 40.67L33.39 41.77L32.84 42.9L32.37 44.09L31.97 45.31L31.66 46.56L31.43 47.85L31.3 49.17L31.25 50.52L31.29 51.42L31.39 52.32L31.57 53.2L31.82 54.08L32.14 54.95L32.53 55.81L32.99 56.67L33.52 57.52L34.12 58.35L34.79 59.18L35.54 60.01L36.35 60.82L37.24 61.63L38.2 62.43L39.22 63.22L40.32 64.01L41.49 64.78L42.73 65.55L44.05 66.31L45.43 67.06L46.88 67.81L48.41 68.54L50 69.27L51.35 69.22L52.67 69.09L53.96 68.86L55.21 68.55L56.43 68.15L57.62 67.68L58.76 67.13L59.85 66.51L60.9 65.82L61.89 65.06L62.83 64.24L63.72 63.35L64.54 62.41L65.3 61.42L65.99 60.37L66.61 59.28L67.16 58.14L67.63 56.95L68.03 55.73L68.34 54.48L68.57 53.19L68.7 51.87L68.75 50.52L68.7 49.17L68.57 47.85L68.34 46.56L68.03 45.31L67.63 44.09L67.16 42.9L66.61 41.77L65.99 40.67L65.3 39.62L64.54 38.63L63.72 37.69L62.83 36.81L61.89 35.98L60.9 35.22L59.85 34.53L58.76 33.91L57.62 33.36L56.43 32.89L55.21 32.49L53.96 32.18L52.67 31.96L51.35 31.82L50 31.77L48.65 31.82L47.33 31.96Z" id="cm0nwJADo"></path></defs><g><g><g><use xlink:href="#cm0nwJADo" opacity="1" fill="#000000" fill-opacity="1"></use><g><use xlink:href="#cm0nwJADo" opacity="1" fill-opacity="0" stroke="#000000" stroke-width="1" stroke-opacity="0"></use></g></g></g></g></svg>