<?xml version="1.0" encoding="UTF-8" standalone="no"?>
<!DOCTYPE svg PUBLIC "-//W3C//DTD SVG 1.1//EN" "http://www.w3.org/Graphics/SVG/1.1/DTD/svg11.dtd">
<svg version="1.1" xmlns="http://www.w3.org/2000/svg" xmlns:xlink="http://www.w3.org/1999/xlink" preserveAspectRatio="xMidYMid meet" viewBox="0 0 100 100" width="100" height="100"><defs><path d="M72.13 0.01L72.31 0.03L72.48 0.05L72.64 0.08L72.8 0.11L72.95 0.15L73.09 0.19L73.23 0.24L73.36 0.3L73.49 0.36L73.61 0.43L73.73 0.5L73.85 0.58L73.97 0.66L74.08 0.75L74.19 0.84L74.3 0.94L74.41 1.05L74.52 1.15L74.64 1.27L74.75 1.39L74.87 1.51L74.99 1.64L75.11 1.78L75.24 1.92L75.37 2.06L75.5 2.21L75.64 2.36L75.79 2.52L75.94 2.68L76.1 2.85L76.27 3.02L76.45 3.2L76.64 3.38L76.83 3.57L77.04 3.75L77.25 3.95L77.48 4.15L77.72 4.35L88.04 25L87.5 25L88.03 25.01L88.55 25.04L89.06 25.09L89.57 25.16L90.07 25.25L90.56 25.35L91.04 25.48L91.51 25.62L91.98 25.78L92.43 25.96L92.88 26.15L93.32 26.36L93.74 26.59L94.16 26.83L94.56 27.09L94.95 27.37L95.33 27.65L95.7 27.95L96.06 28.27L96.4 28.6L96.73 28.94L97.05 29.3L97.35 29.67L97.63 30.05L97.91 30.44L98.17 30.84L98.41 31.26L98.64 31.68L98.85 32.12L99.04 32.57L99.22 33.02L99.38 33.49L99.52 33.96L99.65 34.44L99.75 34.93L99.84 35.43L99.91 35.94L99.96 36.45L99.99 36.97L100 37.5L100 100L0 100L0 36.96L0.01 36.47L0.04 35.99L0.1 35.51L0.17 35.04L0.27 34.57L0.39 34.11L0.52 33.66L0.67 33.21L0.85 32.77L1.04 32.34L1.24 31.91L1.47 31.5L1.71 31.09L1.96 30.69L2.24 30.31L2.52 29.93L2.82 29.56L3.14 29.21L3.46 28.86L3.8 28.53L4.16 28.21L4.52 27.91L4.9 27.61L5.28 27.33L5.68 27.06L6.08 26.81L6.5 26.57L6.92 26.35L7.36 26.14L7.8 25.95L8.24 25.78L8.7 25.62L9.16 25.48L9.62 25.35L10.09 25.25L10.57 25.16L11.04 25.09L11.53 25.04L12.01 25.01L12.5 25L37.5 25L47.28 4.35L47.37 4.15L47.45 3.95L47.55 3.75L47.64 3.57L47.74 3.38L47.84 3.2L47.95 3.02L48.06 2.85L48.18 2.68L48.29 2.52L48.41 2.36L48.54 2.21L48.67 2.06L48.8 1.92L48.94 1.78L49.07 1.64L49.22 1.51L49.36 1.39L49.51 1.27L49.66 1.15L49.81 1.05L49.97 0.94L50.13 0.84L50.3 0.75L50.46 0.66L50.63 0.58L50.8 0.5L50.98 0.43L51.15 0.36L51.33 0.3L51.52 0.24L51.7 0.19L51.89 0.15L52.08 0.11L52.27 0.08L52.46 0.05L52.66 0.03L52.86 0.01L53.06 0L53.26 0L71.74 0L71.94 0L72.13 0.01ZM60.44 37.64L59.17 37.81L57.91 38.05L56.68 38.35L55.47 38.72L54.28 39.14L53.12 39.62L51.99 40.16L50.88 40.75L49.81 41.4L48.78 42.09L47.78 42.84L46.82 43.63L45.89 44.47L45.01 45.35L44.18 46.27L43.38 47.23L42.64 48.23L41.94 49.27L41.3 50.34L40.7 51.44L40.16 52.57L39.68 53.73L39.26 54.92L38.9 56.13L38.59 57.37L38.36 58.62L38.18 59.9L38.08 61.19L38.04 62.5L38.08 63.81L38.18 65.1L38.36 66.38L38.59 67.63L38.9 68.87L39.26 70.08L39.68 71.27L40.16 72.43L40.7 73.56L41.3 74.66L41.94 75.73L42.64 76.77L43.38 77.77L44.18 78.73L45.01 79.65L45.89 80.53L46.82 81.37L47.78 82.16L48.78 82.91L49.81 83.6L50.88 84.25L51.99 84.84L53.12 85.38L54.28 85.86L55.47 86.28L56.68 86.65L57.91 86.95L59.17 87.19L60.44 87.36L61.74 87.46L63.04 87.5L64.35 87.42L65.64 87.27L66.9 87.06L68.15 86.79L69.37 86.46L70.57 86.08L71.74 85.64L72.89 85.15L74 84.6L75.09 84.01L76.14 83.36L77.16 82.67L78.14 81.93L79.09 81.15L80 80.32L80.86 79.45L81.69 78.54L82.47 77.6L83.21 76.62L83.9 75.6L84.55 74.54L85.15 73.46L85.69 72.35L86.18 71.2L86.62 70.03L87.01 68.83L87.33 67.61L87.6 66.36L87.81 65.09L87.96 63.81L88.04 62.5L88.01 61.19L87.9 59.9L87.73 58.62L87.49 57.37L87.19 56.13L86.83 54.92L86.4 53.73L85.92 52.57L85.38 51.44L84.79 50.34L84.15 49.27L83.45 48.23L82.7 47.23L81.91 46.27L81.07 45.35L80.19 44.47L79.27 43.63L78.31 42.84L77.31 42.09L76.27 41.4L75.2 40.75L74.1 40.16L72.97 39.62L71.81 39.14L70.62 38.72L69.41 38.35L68.17 38.05L66.92 37.81L65.64 37.64L64.35 37.54L63.04 37.5L61.74 37.54L60.44 37.64ZM16.95 38.66L15.84 39.37L14.91 40.3L14.2 41.41L13.75 42.66L13.59 44.02L13.75 45.38L14.2 46.63L14.91 47.74L15.84 48.67L16.95 49.39L18.21 49.84L19.57 50L20.92 49.84L22.18 49.39L23.29 48.67L24.22 47.74L24.93 46.63L25.38 45.38L25.54 44.02L25.38 42.66L24.93 41.41L24.22 40.3L23.29 39.37L22.18 38.66L20.92 38.2L19.57 38.04L18.21 38.2L16.95 38.66Z" id="bajJiZkqP"></path><path d="M47.28 62.5C47.28 54.35 54.35 47.28 62.5 47.28C70.65 47.28 77.72 54.35 77.72 62.5C77.17 70.65 70.65 77.17 62.5 77.72C54.35 77.72 47.28 70.65 47.28 62.5Z" id="c1nVz2drda"></path></defs><g><g><g><use xlink:href="#bajJiZkqP" opacity="1" fill="#000000" fill-opacity="1"></use><g><use xlink:href="#bajJiZkqP" opacity="1" fill-opacity="0" stroke="#000000" stroke-width="1" stroke-opacity="0"></use></g></g><g><use xlink:href="#c1nVz2drda" opacity="1" fill="#000000" fill-opacity="1"></use><g><use xlink:href="#c1nVz2drda" opacity="1" fill-opacity="0" stroke="#000000" stroke-width="1" stroke-opacity="0"></use></g></g></g></g></svg>