<?xml version="1.0" encoding="UTF-8" standalone="no"?>
<!DOCTYPE svg PUBLIC "-//W3C//DTD SVG 1.1//EN" "http://www.w3.org/Graphics/SVG/1.1/DTD/svg11.dtd">
<svg version="1.1" xmlns="http://www.w3.org/2000/svg" xmlns:xlink="http://www.w3.org/1999/xlink" preserveAspectRatio="xMidYMid meet" viewBox="0 0 100 75.36" width="100" height="75.36"><defs><path d="M0 37.68C0 23.61 11.05 12.56 25.12 12.56C25.12 15.91 25.12 32.66 25.12 62.8C8.37 55.43 0 47.06 0 37.68Z" id="b4vGRkeFy"></path><path d="M62.8 0L62.8 75.36L37.68 62.8L37.68 12.56L62.8 0Z" id="f2uFvlD27j"></path><path d="M75.36 50.24C76.36 50.24 77.37 50.24 78.37 49.74C84.4 46.72 87.92 43.71 87.92 37.18C88.42 31.15 84.4 26.12 78.37 25.12C77.37 25.12 76.36 24.62 75.36 24.62C75.36 23.36 75.36 13.31 75.36 12.06C77.37 12.06 79.38 12.56 81.39 12.56C92.94 15.07 100.48 25.62 99.98 37.18C99.98 48.73 92.44 58.78 81.39 61.8C80.99 61.8 78.98 61.8 75.36 61.8L75.36 62.8C75.36 55.26 75.36 51.08 75.36 50.24Z" id="i3ECnE7wLR"></path></defs><g><g><g><use xlink:href="#b4vGRkeFy" opacity="1" fill="#000000" fill-opacity="1"></use><g><use xlink:href="#b4vGRkeFy" opacity="1" fill-opacity="0" stroke="#000000" stroke-width="1" stroke-opacity="0"></use></g></g><g><use xlink:href="#f2uFvlD27j" opacity="1" fill="#000000" fill-opacity="1"></use><g><use xlink:href="#f2uFvlD27j" opacity="1" fill-opacity="0" stroke="#000000" stroke-width="1" stroke-opacity="0"></use></g></g><g><use xlink:href="#i3ECnE7wLR" opacity="1" fill="#000000" fill-opacity="1"></use><g><use xlink:href="#i3ECnE7wLR" opacity="1" fill-opacity="0" stroke="#000000" stroke-width="1" stroke-opacity="0"></use></g></g></g></g></svg>