<?xml version="1.0" encoding="UTF-8" standalone="no"?>
<!DOCTYPE svg PUBLIC "-//W3C//DTD SVG 1.1//EN" "http://www.w3.org/Graphics/SVG/1.1/DTD/svg11.dtd">
<svg version="1.1" xmlns="http://www.w3.org/2000/svg" xmlns:xlink="http://www.w3.org/1999/xlink" preserveAspectRatio="xMidYMid meet" viewBox="0 0 100 66.67" width="100" height="66.67"><defs><path d="M0 33.34C0 21.33 10.22 11.11 22.22 11.11C22.22 14.07 22.22 28.89 22.22 55.56C7.41 49.04 0 41.63 0 33.34Z" id="cmGVtdQwm"></path><path d="M55.56 0L55.56 66.67L33.33 55.56L33.33 11.11L55.56 0Z" id="dKG1bXEfG"></path><path d="M69.78 28.89C68.89 28 68.44 26.67 68.44 25.33C68.44 24.4 68.44 16.93 68.44 16C68.44 13.78 70.22 12.45 71.56 13.78C74.27 16.22 95.96 35.78 98.67 38.22C99.56 39.11 100 40.45 100 41.78C100 42.76 100 50.58 100 51.56C100 53.34 98.22 54.67 96.89 53.34C91.47 48.45 72.49 31.33 69.78 28.89Z" id="a2pmOlbKgz"></path><path d="M98.67 28C95.96 30.53 74.27 50.8 71.56 53.34C70.22 54.67 68.44 53.34 68.44 51.11C68.44 50.18 68.44 42.71 68.44 41.78C68.44 40.45 68.89 39.56 69.78 38.67C72.49 36.14 94.18 15.87 96.89 13.33C98.22 12 100 13.33 100 15.56C100 16.18 100 19.29 100 24.89C99.7 26.37 99.26 27.41 98.67 28Z" id="c77w3xNFRw"></path></defs><g><g><g><use xlink:href="#cmGVtdQwm" opacity="1" fill="#000000" fill-opacity="1"></use><g><use xlink:href="#cmGVtdQwm" opacity="1" fill-opacity="0" stroke="#000000" stroke-width="1" stroke-opacity="0"></use></g></g><g><use xlink:href="#dKG1bXEfG" opacity="1" fill="#000000" fill-opacity="1"></use><g><use xlink:href="#dKG1bXEfG" opacity="1" fill-opacity="0" stroke="#000000" stroke-width="1" stroke-opacity="0"></use></g></g><g><use xlink:href="#a2pmOlbKgz" opacity="1" fill="#000000" fill-opacity="1"></use><g><use xlink:href="#a2pmOlbKgz" opacity="1" fill-opacity="0" stroke="#000000" stroke-width="1" stroke-opacity="0"></use></g></g><g><use xlink:href="#c77w3xNFRw" opacity="1" fill="#000000" fill-opacity="1"></use><g><use xlink:href="#c77w3xNFRw" opacity="1" fill-opacity="0" stroke="#000000" stroke-width="1" stroke-opacity="0"></use></g></g></g></g></svg>