<?xml version="1.0" encoding="UTF-8" standalone="no"?>
<!DOCTYPE svg PUBLIC "-//W3C//DTD SVG 1.1//EN" "http://www.w3.org/Graphics/SVG/1.1/DTD/svg11.dtd">
<svg version="1.1" xmlns="http://www.w3.org/2000/svg" xmlns:xlink="http://www.w3.org/1999/xlink" preserveAspectRatio="xMidYMid meet" viewBox="0 0 100 100" width="100" height="100"><defs><path d="M47.42 0.15L49.19 0.32L50.93 0.57L52.66 0.89L54.36 1.27L56.03 1.72L57.68 2.23L59.3 2.81L60.88 3.44L62.44 4.14L63.97 4.89L65.46 5.7L66.91 6.57L68.33 7.48L69.71 8.46L71.05 9.48L72.35 10.55L73.6 11.67L74.81 12.84L75.98 14.05L77.1 15.3L78.17 16.6L79.19 17.94L80.17 19.32L81.08 20.74L81.95 22.19L82.76 23.68L83.51 25.21L84.21 26.77L84.84 28.35L85.42 29.97L85.93 31.62L86.38 33.29L86.76 34.99L87.08 36.72L87.33 38.46L87.5 40.23L87.61 42.02L87.65 43.83L87.65 44.48L87.63 45.12L87.61 45.77L87.57 46.41L87.53 47.06L87.48 47.69L87.41 48.33L87.34 48.96L87.26 49.59L87.17 50.22L87.08 50.84L86.97 51.46L86.85 52.08L86.73 52.7L86.59 53.31L86.45 53.92L86.3 54.52L86.14 55.12L85.98 55.72L85.8 56.31L85.62 56.91L85.42 57.49L85.22 58.08L85.02 58.66L84.8 59.23L84.58 59.81L84.35 60.38L84.11 60.94L83.86 61.5L83.61 62.06L83.35 62.61L83.08 63.16L82.8 63.7L82.52 64.25L82.23 64.78L81.93 65.31L81.63 65.84L81.32 66.36L81 66.88L80.67 67.39L97.25 83.97L97.52 84.25L97.77 84.53L98.01 84.83L98.24 85.13L98.45 85.44L98.65 85.76L98.84 86.08L99.01 86.4L99.17 86.74L99.31 87.07L99.44 87.41L99.56 87.76L99.66 88.11L99.75 88.46L99.83 88.81L99.89 89.17L99.94 89.53L99.97 89.89L99.99 90.25L100 90.61L99.99 90.97L99.97 91.33L99.94 91.69L99.89 92.05L99.83 92.4L99.75 92.76L99.66 93.11L99.56 93.46L99.44 93.8L99.31 94.14L99.17 94.48L99.01 94.81L98.84 95.14L98.65 95.46L98.45 95.78L98.24 96.08L98.01 96.39L97.77 96.68L97.52 96.97L97.25 97.25L96.97 97.52L96.68 97.77L96.39 98.01L96.08 98.24L95.78 98.45L95.46 98.65L95.14 98.84L94.81 99.01L94.48 99.17L94.14 99.31L93.8 99.44L93.46 99.56L93.11 99.66L92.76 99.75L92.4 99.83L92.04 99.89L91.69 99.94L91.33 99.97L90.97 99.99L90.61 100L90.25 99.99L89.89 99.97L89.53 99.94L89.17 99.89L88.81 99.83L88.46 99.75L88.11 99.66L87.76 99.56L87.41 99.44L87.07 99.31L86.74 99.17L86.4 99.01L86.08 98.84L85.76 98.65L85.44 98.45L85.13 98.24L84.83 98.01L84.53 97.77L84.25 97.52L83.97 97.25L67.39 80.67L66.88 81L66.36 81.32L65.84 81.63L65.31 81.93L64.78 82.23L64.24 82.52L63.7 82.8L63.16 83.08L62.61 83.35L62.06 83.61L61.5 83.86L60.94 84.11L60.37 84.35L59.81 84.58L59.23 84.8L58.66 85.02L58.08 85.22L57.49 85.42L56.91 85.62L56.31 85.8L55.72 85.98L55.12 86.14L54.52 86.3L53.91 86.45L53.31 86.59L52.7 86.73L52.08 86.85L51.46 86.97L50.84 87.08L50.22 87.17L49.59 87.26L48.96 87.34L48.33 87.41L47.69 87.48L47.05 87.53L46.41 87.57L45.77 87.61L45.12 87.63L44.48 87.65L43.82 87.65L42.02 87.61L40.23 87.5L38.46 87.33L36.72 87.08L34.99 86.76L33.29 86.38L31.62 85.93L29.97 85.42L28.36 84.84L26.77 84.21L25.21 83.51L23.69 82.76L22.2 81.95L20.74 81.08L19.32 80.17L17.94 79.19L16.6 78.17L15.3 77.1L14.05 75.98L12.84 74.81L11.67 73.6L10.55 72.35L9.48 71.05L8.46 69.71L7.49 68.33L6.57 66.91L5.7 65.46L4.89 63.97L4.14 62.44L3.44 60.88L2.81 59.3L2.23 57.68L1.72 56.03L1.27 54.36L0.89 52.66L0.57 50.93L0.32 49.19L0.15 47.42L0.04 45.63L0 43.83L0.04 42.02L0.15 40.23L0.32 38.46L0.57 36.72L0.89 34.99L1.27 33.29L1.72 31.62L2.23 29.97L2.81 28.35L3.44 26.77L4.14 25.21L4.89 23.68L5.7 22.19L6.57 20.74L7.49 19.32L8.46 17.94L9.48 16.6L10.55 15.3L11.67 14.05L12.84 12.84L14.05 11.67L15.3 10.55L16.6 9.48L17.94 8.46L19.32 7.48L20.74 6.57L22.2 5.7L23.69 4.89L25.21 4.14L26.77 3.44L28.36 2.81L29.97 2.23L31.62 1.72L33.29 1.27L34.99 0.89L36.72 0.57L38.46 0.32L40.23 0.15L42.02 0.04L43.82 0L45.63 0.04L47.42 0.15ZM41.19 12.63L39.9 12.77L38.62 12.95L37.36 13.19L36.12 13.48L34.89 13.81L33.69 14.2L32.51 14.63L31.35 15.1L30.22 15.63L29.11 16.19L28.03 16.8L26.97 17.44L25.94 18.13L24.94 18.86L23.97 19.62L23.04 20.42L22.13 21.26L21.26 22.13L20.42 23.04L19.62 23.97L18.86 24.94L18.13 25.94L17.44 26.97L16.8 28.03L16.19 29.11L15.63 30.22L15.1 31.35L14.63 32.51L14.2 33.69L13.81 34.89L13.48 36.12L13.19 37.36L12.95 38.62L12.77 39.9L12.63 41.19L12.55 42.5L12.52 43.83L12.55 45.15L12.63 46.46L12.77 47.75L12.95 49.03L13.19 50.29L13.48 51.53L13.81 52.76L14.2 53.96L14.63 55.14L15.1 56.3L15.63 57.43L16.19 58.54L16.8 59.63L17.44 60.68L18.13 61.71L18.86 62.71L19.62 63.68L20.42 64.62L21.26 65.52L22.13 66.39L23.04 67.23L23.97 68.03L24.94 68.79L25.94 69.52L26.97 70.21L28.03 70.86L29.11 71.46L30.22 72.03L31.35 72.55L32.51 73.02L33.69 73.45L34.89 73.84L36.12 74.17L37.36 74.46L38.62 74.7L39.9 74.88L41.19 75.02L42.5 75.1L43.82 75.13L45.15 75.1L46.46 75.02L47.75 74.88L49.03 74.7L50.29 74.46L51.53 74.17L52.76 73.84L53.96 73.45L55.14 73.02L56.3 72.55L57.43 72.03L58.54 71.46L59.63 70.86L60.68 70.21L61.71 69.52L62.71 68.79L63.68 68.03L64.62 67.23L65.52 66.39L66.39 65.52L67.23 64.62L68.03 63.68L68.79 62.71L69.52 61.71L70.21 60.68L70.85 59.63L71.46 58.54L72.02 57.43L72.55 56.3L73.02 55.14L73.45 53.96L73.84 52.76L74.17 51.53L74.46 50.29L74.7 49.03L74.88 47.75L75.02 46.46L75.1 45.15L75.13 43.83L75.1 42.5L75.02 41.19L74.88 39.9L74.7 38.62L74.46 37.36L74.17 36.12L73.84 34.89L73.45 33.69L73.02 32.51L72.55 31.35L72.02 30.22L71.46 29.11L70.85 28.03L70.21 26.97L69.52 25.94L68.79 24.94L68.03 23.97L67.23 23.04L66.39 22.13L65.52 21.26L64.62 20.42L63.68 19.62L62.71 18.86L61.71 18.13L60.68 17.44L59.63 16.8L58.54 16.19L57.43 15.63L56.3 15.1L55.14 14.63L53.96 14.2L52.76 13.81L51.53 13.48L50.29 13.19L49.03 12.95L47.75 12.77L46.46 12.63L45.15 12.55L43.82 12.52L42.5 12.55L41.19 12.63Z" id="d6d5NHJeQf"></path><path d="M24 40L64 40L64 50L24 50L24 40Z" id="a1zWBgXlrS"></path></defs><g><g><g><use xlink:href="#d6d5NHJeQf" opacity="1" fill="#000000" fill-opacity="1"></use><g><use xlink:href="#d6d5NHJeQf" opacity="1" fill-opacity="0" stroke="#000000" stroke-width="1" stroke-opacity="0"></use></g></g><g><use xlink:href="#a1zWBgXlrS" opacity="1" fill="#000000" fill-opacity="1"></use></g></g></g></svg>