<?xml version="1.0" encoding="UTF-8" standalone="no"?>
<svg version="1.1" xmlns="http://www.w3.org/2000/svg">
	
	<symbol id="add_to_playlist" viewBox="0 0 100 69.99">
			<path d="M100 39.99L100 49.99L80 49.99L80 69.99L70 69.99L70 49.99L49.99 49.99L49.99 39.99L70 39.99L70 19.99L80 19.99L80 39.99L100 39.99ZM0 49.99L0 39.99L40 39.99L40 49.99L0 49.99ZM0 30L0 20L60.01 20L60.01 30L0 30ZM0 10L0 0L60.01 0L60.01 10L0 10Z"></path>
			<path d="M-7.52 62.46L-7.52 62.46L-7.52 62.46L-7.52 62.46L-7.52 62.46L-7.52 62.46L-7.52 62.46L-7.52 62.46L-7.52 62.46L-7.52 62.46L-7.52 62.46L-7.52 62.46L-7.52 62.46L-7.52 62.46L-7.52 62.46L-7.52 62.46L-7.52 62.46L-7.52 62.46L-7.52 62.46L-7.52 62.46L-7.52 62.46L-7.52 62.46L-7.52 62.46L-7.52 62.46L-7.52 62.46L-7.52 62.46L-7.52 62.46L-7.52 62.46L-7.52 62.46L-7.52 62.46L-7.52 62.46L-7.52 62.46L-7.52 62.46L-7.52 62.46L-7.52 62.46L-7.52 62.46L-7.52 62.46L-7.52 62.46L-7.52 62.46L-7.52 62.55L-7.52 62.55L-7.52 62.55L-7.52 62.55L-7.52 62.55L-7.52 62.55L-7.52 62.55L-7.52 62.55L-7.52 62.55L-7.52 62.55L-7.52 62.55L-7.52 62.55L-7.52 62.55L-7.52 62.55L-7.52 62.55L-7.52 62.55L-7.52 62.55L-7.52 62.55L-7.52 62.55L-7.52 62.55L-7.52 62.55L-7.52 62.55L-7.52 62.55L-7.52 62.55L-7.52 62.55L-7.52 62.55L-7.52 62.55L-7.52 62.55L-7.52 62.55L-7.52 62.55L-7.52 62.55L-7.52 62.55L-7.52 62.55L-7.52 62.55L-7.52 62.55L-7.52 62.55L-7.52 62.55L-7.52 62.55L-7.52 62.55L-7.52 62.55L-7.52 62.55L-7.52 62.55L-7.52 62.62L-7.52 62.62L-7.52 62.62L-7.52 62.62L-7.52 62.62L-7.52 62.62L-7.52 62.62L-7.52 62.62L-7.52 62.62L-7.52 62.62L-7.52 62.62L-7.52 62.62L-7.52 62.62L-7.52 62.62L-7.52 62.62L-7.52 62.62L-7.52 62.62L-7.52 62.62L-7.52 62.62L-7.52 62.62L-7.52 62.62L-7.52 62.62L-7.52 62.62L-7.52 62.62L-7.52 62.62L-7.52 62.62L-7.52 62.62L-7.52 62.62L-7.52 62.62L-7.52 62.62L-7.52 62.62L-7.52 62.62L-7.52 62.62L-7.52 62.62L-7.52 62.62L-7.52 62.62L-7.52 62.62L-7.52 62.62L-7.52 62.62L-7.52 62.62L-7.52 62.62L-7.52 62.62L-7.52 62.7L-7.52 62.7L-7.52 62.7L-7.52 62.7L-7.52 62.7L-7.52 62.7L-7.52 62.7L-7.52 62.7L-7.52 62.7L-7.52 62.7L-7.52 62.7L-7.52 62.7L-7.52 62.7L-7.52 62.7L-7.52 62.7L-7.52 62.7L-7.52 62.7L-7.52 62.7L-7.52 62.7L-7.52 62.7L-7.52 62.7L-7.52 62.7L-7.52 62.7L-7.52 62.7L-7.52 62.7L-7.52 62.7L-7.52 62.71L-7.52 62.71L-7.52 62.71L-7.52 62.71L-7.52 62.71L-7.52 62.71L-7.52 62.71L-7.52 62.71L-7.52 62.71L-7.52 62.71L-7.52 62.71L-7.52 62.71L-7.52 62.71L-7.52 62.71L-7.52 62.71L-7.52 62.71L-7.52 62.71L-7.52 62.71L-7.52 62.71L-7.52 62.71L-7.52 62.71L-7.52 62.71L-7.52 62.71L-7.52 62.71L-7.52 62.71L-7.52 62.71L-7.52 62.71L-7.52 62.71L-7.52 62.71L-7.52 62.71L-7.52 62.7L-7.52 62.7L-7.52 62.7L-7.52 62.7L-7.52 62.7L-7.52 62.7L-7.52 62.7L-7.52 62.7L-7.52 62.7L-7.52 62.7L-7.52 62.7L-7.52 62.7L-7.52 62.7L-7.52 62.7L-7.52 62.7L-7.52 62.7L-7.52 62.7L-7.52 62.7L-7.52 62.7L-7.52 62.7L-7.52 62.7L-7.52 62.7L-7.52 62.7L-7.52 62.7L-7.52 62.7L-7.52 62.7L-7.52 62.62L-7.52 62.62L-7.52 62.62L-7.52 62.62L-7.52 62.62L-7.52 62.62L-7.52 62.62L-7.52 62.62L-7.52 62.62L-7.52 62.62L-7.52 62.62L-7.52 62.62L-7.52 62.62L-7.52 62.62L-7.52 62.62L-7.52 62.62L-7.52 62.62L-7.52 62.62L-7.52 62.62L-7.52 62.62L-7.52 62.62L-7.52 62.62L-7.52 62.62L-7.52 62.62L-7.52 62.62L-7.52 62.62L-7.52 62.62L-7.52 62.62L-7.52 62.62L-7.52 62.62L-7.52 62.62L-7.52 62.62L-7.52 62.62L-7.52 62.62L-7.52 62.62L-7.52 62.62L-7.52 62.62L-7.52 62.62L-7.52 62.62L-7.52 62.62L-7.52 62.62L-7.52 62.62L-7.52 62.55L-7.52 62.55L-7.52 62.55L-7.52 62.55L-7.52 62.55L-7.52 62.55L-7.52 62.55L-7.52 62.55L-7.52 62.55L-7.52 62.55L-7.52 62.55L-7.52 62.55L-7.52 62.55L-7.52 62.55L-7.52 62.55L-7.52 62.55L-7.52 62.55L-7.52 62.55L-7.52 62.55L-7.52 62.55L-7.52 62.55L-7.52 62.55L-7.52 62.55L-7.52 62.55L-7.52 62.55L-7.52 62.55L-7.52 62.55L-7.52 62.55L-7.52 62.55L-7.52 62.55L-7.52 62.55L-7.52 62.55L-7.52 62.55L-7.52 62.55L-7.52 62.55L-7.52 62.55L-7.52 62.55L-7.52 62.55L-7.52 62.55L-7.52 62.55L-7.52 62.55L-7.52 62.55L-7.52 62.46L-7.52 62.46L-7.52 62.46L-7.52 62.46L-7.52 62.46L-7.52 62.46L-7.52 62.46L-7.52 62.46L-7.52 62.46L-7.52 62.46L-7.52 62.46L-7.52 62.46L-7.52 62.46L-7.52 62.46L-7.52 62.46L-7.52 62.46L-7.52 62.46L-7.52 62.46L-7.52 62.46L-7.52 62.46L-7.52 62.46L-7.52 62.46L-7.52 62.46L-7.52 62.46L-7.52 62.46L-7.52 62.46L-7.52 62.46L-7.52 62.46L-7.52 62.46L-7.52 62.46L-7.52 62.46L-7.52 62.46L-7.52 62.46L-7.52 62.46L-7.52 62.46L-7.52 62.46L-7.52 62.46L-7.52 62.46L-7.52 62.46L-7.52 62.46L-7.52 62.46L-7.52 62.46L-7.52 62.46L-7.52 62.46Z"></path>
	</symbol>

	<symbol id="edit" viewBox="0 0 576 512">
		<path id="svg_1" d="m402.6,83.2l90.2,90.2c3.8,3.8 3.8,10 0,13.8l-218.4,218.4l-92.8,10.3c-12.4,1.4 -22.9,-9.1 -21.5,-21.5l10.3,-92.8l218.4,-218.4c3.8,-3.8 10,-3.8 13.8,0zm162,-22.9l-48.8,-48.8c-15.2,-15.2 -39.9,-15.2 -55.2,0l-35.4,35.4c-3.8,3.8 -3.8,10 0,13.8l90.2,90.2c3.8,3.8 10,3.8 13.8,0l35.4,-35.4c15.2,-15.3 15.2,-40 0,-55.2zm-180.6,285.9l0,101.8l-320,0l0,-320l229.8,0c3.2,0 6.2,-1.3 8.5,-3.5l40,-40c7.6,-7.6 2.2,-20.5 -8.5,-20.5l-285.8,0c-26.5,0 -48,21.5 -48,48l0,352c0,26.5 21.5,48 48,48l352,0c26.5,0 48,-21.5 48,-48l0,-157.8c0,-10.7 -12.9,-16 -20.5,-8.5l-40,40c-2.2,2.3 -3.5,5.3 -3.5,8.5z" fill="currentColor"/>
	</symbol>

	<symbol id="exit_fullscreen" viewBox="0 -10 110 110">
		<path d="M90.72 100L100 90.72L84.54 78.35L100 62.37L62.37 62.37L62.37 100L78.35 84.54L90.72 100Z"></path>
		<path d="M37.63 37.63L37.63 0L23.2 14.43L9.28 0L0.52 9.28L14.43 23.2L0 37.63L37.63 37.63Z"></path>
		<path d="M8.76 100L23.2 84.54L37.63 100L37.63 62.37L0 62.37L14.43 78.35L0 90.72L8.76 100Z"></path>
		<path d="M100 37.63L84.54 23.2L100 9.28L90.72 0L78.35 14.43L62.37 0L62.37 37.63L100 37.63Z"></path>
	</symbol>

	<symbol id="fullscreen" viewBox="0 -10 110 110">
		<path d="M71.96 62.23L62.43 71.81L77.78 84.57L62.43 100L100 100L100 62.23L84.66 78.19L71.96 62.23Z"></path>
		<path d="M0 0L0 37.23L14.81 22.87L28.57 37.23L37.57 28.19L23.28 14.36L37.57 0L0 0Z"></path>
		<path d="M29.1 62.23L14.81 78.19L0 62.23L0 100L37.57 100L23.28 84.57L37.57 71.81L29.1 62.23Z"></path>
		<path d="M62.43 0L77.78 14.36L62.43 28.19L71.96 37.23L84.66 22.87L100 37.23L100 0L62.43 0Z"></path>
	</symbol>

	<symbol id="marker" viewBox="0 0 78.17 100">
		<path d="M71 0.18L71.34 0.29L71.68 0.4L72.01 0.53L72.34 0.67L72.66 0.82L72.97 0.98L73.28 1.15L73.58 1.33L73.87 1.51L74.16 1.71L74.44 1.92L74.71 2.13L74.98 2.35L75.23 2.58L75.48 2.82L75.72 3.07L75.95 3.32L76.17 3.58L76.38 3.85L76.58 4.12L76.77 4.4L76.95 4.69L77.11 4.98L77.27 5.28L77.41 5.58L77.55 5.89L77.67 6.2L77.78 6.52L77.87 6.84L77.96 7.17L78.03 7.5L78.08 7.83L78.13 8.17L78.15 8.51L78.17 8.85L78.17 9.2L78.15 9.55L78.12 9.9L78.12 100L39.06 83.33L0 99.48L0 10.42L0 10.4L0.01 10.34L0.03 10.25L0.05 10.13L0.08 9.97L0.12 9.78L0.17 9.57L0.23 9.33L0.3 9.07L0.37 8.79L0.46 8.49L0.56 8.17L0.67 7.83L0.8 7.48L0.93 7.12L1.08 6.75L1.25 6.37L1.42 5.99L1.62 5.6L1.82 5.21L2.05 4.82L2.28 4.43L2.54 4.05L2.81 3.67L3.1 3.3L3.41 2.93L3.74 2.59L4.08 2.25L4.45 1.93L4.83 1.63L5.24 1.34L5.67 1.08L6.11 0.85L6.58 0.63L7.08 0.45L7.59 0.29L8.13 0.17L8.7 0.08L9.28 0.02L9.9 0L70.31 0L70.66 0.08L71 0.18ZM33.85 37.5L13.54 37.5L13.54 48.44L33.85 48.44L33.85 68.75L44.27 68.75L44.27 49.48L66.14 48.96L66.14 38.54L44.27 38.02L44.27 17.19L33.85 17.19L33.85 37.5Z"></path>
	</symbol>

	<symbol id="pause" viewBox="0 -10 86.988 110">
		<path d="M26.02 0C26.02 0 26.02 0 26.02 0C26.02 60 26.02 93.33 26.02 100C26.02 100 26.02 100 26.02 100C10.41 100 1.73 100 0 100C0 100 0 100 0 100C0 40 0 6.67 0 0C0 0 0 0 0 0C15.61 0 24.29 0 26.02 0Z"></path>
		<path d="M79.08 0C79.08 0 79.08 0 79.08 0C79.08 60 79.08 93.33 79.08 100C79.08 100 79.08 100 79.08 100C63.47 100 54.79 100 53.06 100C53.06 100 53.06 100 53.06 100C53.06 40 53.06 6.67 53.06 0C53.06 0 53.06 0 53.06 0C68.67 0 77.35 0 79.08 0Z"></path>
	</symbol>

	<symbol id="play" viewBox="0 -10 93.434 110">
		<path d="M84.94 46.5L0 100L0 0L84.94 46.5Z"></path>
	</symbol>

	<symbol id="reorder" viewBox="0 0 35.71 100">
		<path d="M610.65 20.37C609.94 21.08 609.11 21.43 608.14 21.43L601 21.43L601 78.57C605.28 78.57 607.66 78.57 608.14 78.57C609.59 78.57 610.4 79.53 610.65 79.63C611.71 80.69 611.6 81.89 611.71 82.14C611.71 83.11 611.36 83.95 610.65 84.65C602.08 93.23 597.32 97.99 596.37 98.94C595.31 100 594.11 99.89 593.86 100C592.89 100 592.05 99.65 591.34 98.94C582.77 90.37 578.01 85.61 577.06 84.65C576 83.59 576.11 82.39 576 82.14C576 80.69 576.95 79.88 577.06 79.63C577.77 78.92 578.6 78.57 579.57 78.57L586.71 78.57L586.71 21.43C582.43 21.43 580.05 21.43 579.57 21.43C578.12 21.43 577.31 20.47 577.06 20.37C576 19.31 576.11 18.11 576 17.86C576 16.89 576.35 16.05 577.06 15.35C585.63 6.77 590.39 2.01 591.34 1.06C592.4 0 593.6 0.11 593.86 0C594.82 0 595.66 0.35 596.37 1.06C604.94 9.63 609.7 14.39 610.65 15.35C611.36 16.05 611.71 16.89 611.71 17.86C611.07 19.36 610.72 20.2 610.65 20.37Z"></path>
		<path d="M34.65 20.37C33.94 21.08 33.11 21.43 32.14 21.43L25 21.43L25 78.57C29.28 78.57 31.66 78.57 32.14 78.57C33.59 78.57 34.4 79.53 34.65 79.63C35.71 80.69 35.6 81.89 35.71 82.14C35.71 83.11 35.36 83.95 34.65 84.65C26.08 93.23 21.32 97.99 20.37 98.94C19.31 100 18.11 99.89 17.85 100C16.89 100 16.05 99.65 15.34 98.94C6.77 90.37 2.01 85.61 1.06 84.65C0 83.59 0.11 82.39 0 82.14C0 80.69 0.95 79.88 1.06 79.63C1.77 78.92 2.6 78.57 3.57 78.57L10.71 78.57L10.71 21.43C6.43 21.43 4.05 21.43 3.57 21.43C2.12 21.43 1.31 20.47 1.06 20.37C0 19.31 0.11 18.11 0 17.86C0 16.89 0.35 16.05 1.06 15.35C9.63 6.77 14.39 2.01 15.34 1.06C16.4 0 17.6 0.11 17.85 0C18.82 0 19.66 0.35 20.37 1.06C28.94 9.63 33.7 14.39 34.65 15.35C35.36 16.05 35.71 16.89 35.71 17.86C35.07 19.36 34.72 20.2 34.65 20.37Z"></path>
	</symbol>

	<symbol id="share" viewBox="0 0 80 90">
		 <path id="svg_2" d="m65,60c-3.436,0 -6.592,1.168 -9.121,3.112l-26.096,-15.657c0.131,-0.801 0.217,-1.618 0.217,-2.455c0,-0.839 -0.086,-1.654 -0.217,-2.456l26.096,-15.657c2.529,1.946 5.685,3.113 9.121,3.113c8.283,0 15,-6.717 15,-15s-6.717,-15 -15,-15s-15,6.717 -15,15c0,0.837 0.086,1.654 0.219,2.455l-26.096,15.657c-2.529,-1.944 -5.685,-3.112 -9.123,-3.112c-8.283,0 -15,6.717 -15,15s6.717,15 15,15c3.438,0 6.594,-1.167 9.123,-3.113l26.096,15.657c-0.133,0.802 -0.219,1.617 -0.219,2.456c0,8.283 6.717,15 15,15s15,-6.717 15,-15s-6.717,-15 -15,-15z"/>
	</symbol>
	
	<symbol id="stream_quality" viewBox="0 -10 110 110">
		<path d="M62.06 14.62L62.14 14.66L62.22 14.7L62.31 14.74L62.39 14.78L62.48 14.82L62.57 14.86L62.66 14.9L62.75 14.93L62.84 14.97L62.94 15.01L63.03 15.05L63.12 15.09L63.22 15.13L63.32 15.17L63.41 15.21L63.51 15.25L63.61 15.29L63.7 15.33L63.9 15.4L64 15.44L64.09 15.48L64.19 15.52L64.29 15.56L64.38 15.6L64.48 15.64L64.57 15.68L64.67 15.72L64.76 15.76L64.85 15.79L64.95 15.83L65.04 15.87L65.12 15.91L65.21 15.95L65.3 15.99L65.38 16.03L65.46 16.07L65.55 16.11L65.62 16.15L80.73 9.9L89.58 18.75L83.33 33.85L83.37 33.93L83.41 34.01L83.45 34.1L83.49 34.18L83.53 34.27L83.57 34.35L83.61 34.44L83.65 34.53L83.68 34.62L83.72 34.72L83.76 34.81L83.8 34.9L83.84 35L83.88 35.09L83.92 35.19L83.96 35.29L84 35.38L84.04 35.48L84.08 35.58L84.15 35.77L84.19 35.87L84.23 35.97L84.27 36.07L84.31 36.16L84.35 36.26L84.39 36.36L84.43 36.45L84.47 36.54L84.51 36.64L84.54 36.73L84.58 36.82L84.62 36.91L84.66 37L84.7 37.09L84.74 37.17L84.78 37.26L84.82 37.34L84.86 37.42L84.9 37.5L100 43.75L100 56.25L83.85 62.5L83.82 62.58L83.78 62.66L83.74 62.74L83.7 62.83L83.66 62.91L83.62 63L83.58 63.09L83.54 63.18L83.5 63.27L83.46 63.36L83.42 63.46L83.39 63.55L83.35 63.64L83.31 63.74L83.27 63.84L83.23 63.93L83.19 64.03L83.15 64.13L83.11 64.23L83.03 64.42L82.99 64.52L82.96 64.62L82.92 64.71L82.88 64.81L82.84 64.91L82.8 65L82.76 65.1L82.72 65.19L82.68 65.28L82.64 65.38L82.6 65.47L82.57 65.56L82.53 65.65L82.49 65.73L82.45 65.82L82.41 65.9L82.37 65.99L82.33 66.07L82.29 66.15L88.54 81.25L80.21 89.58L65.1 83.33L65.03 83.37L64.94 83.41L64.86 83.45L64.78 83.49L64.69 83.53L64.6 83.57L64.52 83.61L64.43 83.65L64.33 83.68L64.24 83.72L64.15 83.76L64.05 83.8L63.96 83.84L63.86 83.88L63.77 83.92L63.67 83.96L63.57 84L63.48 84.04L63.38 84.08L63.18 84.15L63.09 84.19L62.99 84.23L62.89 84.27L62.8 84.31L62.7 84.35L62.6 84.39L62.51 84.43L62.41 84.47L62.32 84.51L62.23 84.54L62.14 84.58L62.05 84.62L61.96 84.66L61.87 84.7L61.79 84.74L61.7 84.78L61.62 84.82L61.54 84.86L61.46 84.9L55.21 100L42.71 100L36.46 84.38L36.38 84.34L36.3 84.3L36.22 84.26L36.13 84.22L36.05 84.18L35.96 84.14L35.87 84.1L35.78 84.06L35.69 84.02L35.6 83.98L35.5 83.95L35.41 83.91L35.31 83.87L35.22 83.83L35.12 83.79L35.02 83.75L34.93 83.71L34.83 83.67L34.73 83.63L34.54 83.55L34.44 83.52L34.34 83.48L34.25 83.44L34.15 83.4L34.05 83.36L33.96 83.32L33.86 83.28L33.77 83.24L33.68 83.2L33.58 83.16L33.49 83.13L33.4 83.09L33.31 83.05L33.23 83.01L33.14 82.97L33.06 82.93L32.97 82.89L32.89 82.85L32.81 82.81L18.23 89.06L9.9 80.73L16.15 66.15L16.11 66.07L16.07 65.99L16.03 65.9L15.99 65.82L15.95 65.73L15.91 65.65L15.87 65.56L15.83 65.47L15.79 65.38L15.76 65.28L15.72 65.19L15.68 65.1L15.64 65L15.6 64.91L15.56 64.81L15.52 64.71L15.48 64.62L15.44 64.52L15.4 64.42L15.33 64.23L15.29 64.13L15.25 64.03L15.21 63.93L15.17 63.84L15.13 63.74L15.09 63.64L15.05 63.55L15.01 63.46L14.97 63.36L14.93 63.27L14.9 63.18L14.86 63.09L14.82 63L14.78 62.91L14.74 62.83L14.7 62.74L14.66 62.66L14.62 62.58L14.58 62.5L0 56.25L0 43.75L15.1 37.5L15.11 37.48L15.11 37.45L15.12 37.41L15.13 37.37L15.14 37.31L15.15 37.25L15.16 37.18L15.18 37.1L15.19 37.01L15.21 36.92L15.23 36.83L15.25 36.72L15.27 36.62L15.3 36.51L15.32 36.4L15.35 36.29L15.37 36.17L15.4 36.05L15.43 35.94L15.46 35.82L15.49 35.7L15.52 35.59L15.55 35.47L15.59 35.36L15.62 35.26L15.66 35.15L15.69 35.05L15.73 34.95L15.76 34.86L15.8 34.78L15.84 34.7L15.88 34.63L15.91 34.56L15.95 34.51L15.99 34.46L16.03 34.43L16.07 34.4L16.11 34.38L16.15 34.38L9.9 19.79L18.75 10.42L33.33 16.15L33.41 16.11L33.49 16.07L33.58 16.03L33.66 15.99L33.75 15.95L33.83 15.91L33.92 15.87L34.01 15.83L34.1 15.79L34.2 15.76L34.29 15.72L34.38 15.68L34.48 15.64L34.57 15.6L34.67 15.56L34.77 15.52L34.86 15.48L34.96 15.44L35.06 15.4L35.25 15.33L35.35 15.29L35.45 15.25L35.55 15.21L35.64 15.17L35.74 15.13L35.83 15.09L35.93 15.05L36.02 15.01L36.12 14.97L36.21 14.93L36.3 14.9L36.39 14.86L36.48 14.82L36.57 14.78L36.65 14.74L36.74 14.7L36.82 14.66L36.9 14.62L36.98 14.58L43.23 0L55.73 0L61.98 14.58L62.06 14.62ZM47.33 31.96L46.04 32.18L44.79 32.49L43.57 32.89L42.38 33.36L41.24 33.91L40.15 34.53L39.1 35.22L38.11 35.98L37.17 36.81L36.28 37.69L35.46 38.63L34.7 39.62L34.01 40.67L33.39 41.77L32.84 42.9L32.37 44.09L31.97 45.31L31.66 46.56L31.43 47.85L31.3 49.17L31.25 50.52L31.29 51.42L31.39 52.32L31.57 53.2L31.82 54.08L32.14 54.95L32.53 55.81L32.99 56.67L33.52 57.52L34.12 58.35L34.79 59.18L35.54 60.01L36.35 60.82L37.24 61.63L38.2 62.43L39.22 63.22L40.32 64.01L41.49 64.78L42.73 65.55L44.05 66.31L45.43 67.06L46.88 67.81L48.41 68.54L50 69.27L51.35 69.22L52.67 69.09L53.96 68.86L55.21 68.55L56.43 68.15L57.62 67.68L58.76 67.13L59.85 66.51L60.9 65.82L61.89 65.06L62.83 64.24L63.72 63.35L64.54 62.41L65.3 61.42L65.99 60.37L66.61 59.28L67.16 58.14L67.63 56.95L68.03 55.73L68.34 54.48L68.57 53.19L68.7 51.87L68.75 50.52L68.7 49.17L68.57 47.85L68.34 46.56L68.03 45.31L67.63 44.09L67.16 42.9L66.61 41.77L65.99 40.67L65.3 39.62L64.54 38.63L63.72 37.69L62.83 36.81L61.89 35.98L60.9 35.22L59.85 34.53L58.76 33.91L57.62 33.36L56.43 32.89L55.21 32.49L53.96 32.18L52.67 31.96L51.35 31.82L50 31.77L48.65 31.82L47.33 31.96Z"></path>
	</symbol>

	<symbol id="thumbnail" viewBox="0 -10 110 110">
		<path d="M72.13 0.01L72.31 0.03L72.48 0.05L72.64 0.08L72.8 0.11L72.95 0.15L73.09 0.19L73.23 0.24L73.36 0.3L73.49 0.36L73.61 0.43L73.73 0.5L73.85 0.58L73.97 0.66L74.08 0.75L74.19 0.84L74.3 0.94L74.41 1.05L74.52 1.15L74.64 1.27L74.75 1.39L74.87 1.51L74.99 1.64L75.11 1.78L75.24 1.92L75.37 2.06L75.5 2.21L75.64 2.36L75.79 2.52L75.94 2.68L76.1 2.85L76.27 3.02L76.45 3.2L76.64 3.38L76.83 3.57L77.04 3.75L77.25 3.95L77.48 4.15L77.72 4.35L88.04 25L87.5 25L88.03 25.01L88.55 25.04L89.06 25.09L89.57 25.16L90.07 25.25L90.56 25.35L91.04 25.48L91.51 25.62L91.98 25.78L92.43 25.96L92.88 26.15L93.32 26.36L93.74 26.59L94.16 26.83L94.56 27.09L94.95 27.37L95.33 27.65L95.7 27.95L96.06 28.27L96.4 28.6L96.73 28.94L97.05 29.3L97.35 29.67L97.63 30.05L97.91 30.44L98.17 30.84L98.41 31.26L98.64 31.68L98.85 32.12L99.04 32.57L99.22 33.02L99.38 33.49L99.52 33.96L99.65 34.44L99.75 34.93L99.84 35.43L99.91 35.94L99.96 36.45L99.99 36.97L100 37.5L100 100L0 100L0 36.96L0.01 36.47L0.04 35.99L0.1 35.51L0.17 35.04L0.27 34.57L0.39 34.11L0.52 33.66L0.67 33.21L0.85 32.77L1.04 32.34L1.24 31.91L1.47 31.5L1.71 31.09L1.96 30.69L2.24 30.31L2.52 29.93L2.82 29.56L3.14 29.21L3.46 28.86L3.8 28.53L4.16 28.21L4.52 27.91L4.9 27.61L5.28 27.33L5.68 27.06L6.08 26.81L6.5 26.57L6.92 26.35L7.36 26.14L7.8 25.95L8.24 25.78L8.7 25.62L9.16 25.48L9.62 25.35L10.09 25.25L10.57 25.16L11.04 25.09L11.53 25.04L12.01 25.01L12.5 25L37.5 25L47.28 4.35L47.37 4.15L47.45 3.95L47.55 3.75L47.64 3.57L47.74 3.38L47.84 3.2L47.95 3.02L48.06 2.85L48.18 2.68L48.29 2.52L48.41 2.36L48.54 2.21L48.67 2.06L48.8 1.92L48.94 1.78L49.07 1.64L49.22 1.51L49.36 1.39L49.51 1.27L49.66 1.15L49.81 1.05L49.97 0.94L50.13 0.84L50.3 0.75L50.46 0.66L50.63 0.58L50.8 0.5L50.98 0.43L51.15 0.36L51.33 0.3L51.52 0.24L51.7 0.19L51.89 0.15L52.08 0.11L52.27 0.08L52.46 0.05L52.66 0.03L52.86 0.01L53.06 0L53.26 0L71.74 0L71.94 0L72.13 0.01ZM60.44 37.64L59.17 37.81L57.91 38.05L56.68 38.35L55.47 38.72L54.28 39.14L53.12 39.62L51.99 40.16L50.88 40.75L49.81 41.4L48.78 42.09L47.78 42.84L46.82 43.63L45.89 44.47L45.01 45.35L44.18 46.27L43.38 47.23L42.64 48.23L41.94 49.27L41.3 50.34L40.7 51.44L40.16 52.57L39.68 53.73L39.26 54.92L38.9 56.13L38.59 57.37L38.36 58.62L38.18 59.9L38.08 61.19L38.04 62.5L38.08 63.81L38.18 65.1L38.36 66.38L38.59 67.63L38.9 68.87L39.26 70.08L39.68 71.27L40.16 72.43L40.7 73.56L41.3 74.66L41.94 75.73L42.64 76.77L43.38 77.77L44.18 78.73L45.01 79.65L45.89 80.53L46.82 81.37L47.78 82.16L48.78 82.91L49.81 83.6L50.88 84.25L51.99 84.84L53.12 85.38L54.28 85.86L55.47 86.28L56.68 86.65L57.91 86.95L59.17 87.19L60.44 87.36L61.74 87.46L63.04 87.5L64.35 87.42L65.64 87.27L66.9 87.06L68.15 86.79L69.37 86.46L70.57 86.08L71.74 85.64L72.89 85.15L74 84.6L75.09 84.01L76.14 83.36L77.16 82.67L78.14 81.93L79.09 81.15L80 80.32L80.86 79.45L81.69 78.54L82.47 77.6L83.21 76.62L83.9 75.6L84.55 74.54L85.15 73.46L85.69 72.35L86.18 71.2L86.62 70.03L87.01 68.83L87.33 67.61L87.6 66.36L87.81 65.09L87.96 63.81L88.04 62.5L88.01 61.19L87.9 59.9L87.73 58.62L87.49 57.37L87.19 56.13L86.83 54.92L86.4 53.73L85.92 52.57L85.38 51.44L84.79 50.34L84.15 49.27L83.45 48.23L82.7 47.23L81.91 46.27L81.07 45.35L80.19 44.47L79.27 43.63L78.31 42.84L77.31 42.09L76.27 41.4L75.2 40.75L74.1 40.16L72.97 39.62L71.81 39.14L70.62 38.72L69.41 38.35L68.17 38.05L66.92 37.81L65.64 37.64L64.35 37.54L63.04 37.5L61.74 37.54L60.44 37.64ZM16.95 38.66L15.84 39.37L14.91 40.3L14.2 41.41L13.75 42.66L13.59 44.02L13.75 45.38L14.2 46.63L14.91 47.74L15.84 48.67L16.95 49.39L18.21 49.84L19.57 50L20.92 49.84L22.18 49.39L23.29 48.67L24.22 47.74L24.93 46.63L25.38 45.38L25.54 44.02L25.38 42.66L24.93 41.41L24.22 40.3L23.29 39.37L22.18 38.66L20.92 38.2L19.57 38.04L18.21 38.2L16.95 38.66Z"></path>
		<path d="M47.28 62.5C47.28 54.35 54.35 47.28 62.5 47.28C70.65 47.28 77.72 54.35 77.72 62.5C77.17 70.65 70.65 77.17 62.5 77.72C54.35 77.72 47.28 70.65 47.28 62.5Z"></path>
	</symbol>

	<symbol id="volume_off" viewBox="0 0 88 66.67">
		<path d="M0 33.34C0 21.33 10.22 11.11 22.22 11.11C22.22 14.07 22.22 28.89 22.22 55.56C7.41 49.04 0 41.63 0 33.34Z"></path>
		<path d="M55.56 0L55.56 66.67L33.33 55.56L33.33 11.11L55.56 0Z"></path>
		<path d="M69.78 28.89C68.89 28 68.44 26.67 68.44 25.33C68.44 24.4 68.44 16.93 68.44 16C68.44 13.78 70.22 12.45 71.56 13.78C74.27 16.22 95.96 35.78 98.67 38.22C99.56 39.11 100 40.45 100 41.78C100 42.76 100 50.58 100 51.56C100 53.34 98.22 54.67 96.89 53.34C91.47 48.45 72.49 31.33 69.78 28.89Z"></path>
		<path d="M98.67 28C95.96 30.53 74.27 50.8 71.56 53.34C70.22 54.67 68.44 53.34 68.44 51.11C68.44 50.18 68.44 42.71 68.44 41.78C68.44 40.45 68.89 39.56 69.78 38.67C72.49 36.14 94.18 15.87 96.89 13.33C98.22 12 100 13.33 100 15.56C100 16.18 100 19.29 100 24.89C99.7 26.37 99.26 27.41 98.67 28Z"></path>
	</symbol>

	<symbol id="volume_on" viewBox="0 0 100 75.36">
		<path d="M0 37.68C0 23.61 11.05 12.56 25.12 12.56C25.12 15.91 25.12 32.66 25.12 62.8C8.37 55.43 0 47.06 0 37.68Z"></path>
		<path d="M62.8 0L62.8 75.36L37.68 62.8L37.68 12.56L62.8 0Z"></path>
		<path d="M75.36 50.24C76.36 50.24 77.37 50.24 78.37 49.74C84.4 46.72 87.92 43.71 87.92 37.18C88.42 31.15 84.4 26.12 78.37 25.12C77.37 25.12 76.36 24.62 75.36 24.62C75.36 23.36 75.36 13.31 75.36 12.06C77.37 12.06 79.38 12.56 81.39 12.56C92.94 15.07 100.48 25.62 99.98 37.18C99.98 48.73 92.44 58.78 81.39 61.8C80.99 61.8 78.98 61.8 75.36 61.8L75.36 62.8C75.36 55.26 75.36 51.08 75.36 50.24Z"></path>
	</symbol>

	<symbol id="scrubber_on" viewBox="0 -10 110 110">
		<path d="M47.42 0.15L49.19 0.32L50.93 0.57L52.66 0.89L54.36 1.27L56.03 1.72L57.68 2.23L59.3 2.81L60.88 3.44L62.44 4.14L63.97 4.89L65.46 5.7L66.91 6.57L68.33 7.48L69.71 8.46L71.05 9.48L72.35 10.55L73.6 11.67L74.81 12.84L75.98 14.05L77.1 15.3L78.17 16.6L79.19 17.94L80.17 19.32L81.08 20.74L81.95 22.19L82.76 23.68L83.51 25.21L84.21 26.77L84.84 28.35L85.42 29.97L85.93 31.62L86.38 33.29L86.76 34.99L87.08 36.72L87.33 38.46L87.5 40.23L87.61 42.02L87.65 43.83L87.65 44.48L87.63 45.12L87.61 45.77L87.57 46.41L87.53 47.06L87.48 47.69L87.41 48.33L87.34 48.96L87.26 49.59L87.17 50.22L87.08 50.84L86.97 51.46L86.85 52.08L86.73 52.7L86.59 53.31L86.45 53.92L86.3 54.52L86.14 55.12L85.98 55.72L85.8 56.31L85.62 56.91L85.42 57.49L85.22 58.08L85.02 58.66L84.8 59.23L84.58 59.81L84.35 60.38L84.11 60.94L83.86 61.5L83.61 62.06L83.35 62.61L83.08 63.16L82.8 63.7L82.52 64.25L82.23 64.78L81.93 65.31L81.63 65.84L81.32 66.36L81 66.88L80.67 67.39L97.25 83.97L97.52 84.25L97.77 84.53L98.01 84.83L98.24 85.13L98.45 85.44L98.65 85.76L98.84 86.08L99.01 86.4L99.17 86.74L99.31 87.07L99.44 87.41L99.56 87.76L99.66 88.11L99.75 88.46L99.83 88.81L99.89 89.17L99.94 89.53L99.97 89.89L99.99 90.25L100 90.61L99.99 90.97L99.97 91.33L99.94 91.69L99.89 92.05L99.83 92.4L99.75 92.76L99.66 93.11L99.56 93.46L99.44 93.8L99.31 94.14L99.17 94.48L99.01 94.81L98.84 95.14L98.65 95.46L98.45 95.78L98.24 96.08L98.01 96.39L97.77 96.68L97.52 96.97L97.25 97.25L96.97 97.52L96.68 97.77L96.39 98.01L96.08 98.24L95.78 98.45L95.46 98.65L95.14 98.84L94.81 99.01L94.48 99.17L94.14 99.31L93.8 99.44L93.46 99.56L93.11 99.66L92.76 99.75L92.4 99.83L92.04 99.89L91.69 99.94L91.33 99.97L90.97 99.99L90.61 100L90.25 99.99L89.89 99.97L89.53 99.94L89.17 99.89L88.81 99.83L88.46 99.75L88.11 99.66L87.76 99.56L87.41 99.44L87.07 99.31L86.74 99.17L86.4 99.01L86.08 98.84L85.76 98.65L85.44 98.45L85.13 98.24L84.83 98.01L84.53 97.77L84.25 97.52L83.97 97.25L67.39 80.67L66.88 81L66.36 81.32L65.84 81.63L65.31 81.93L64.78 82.23L64.24 82.52L63.7 82.8L63.16 83.08L62.61 83.35L62.06 83.61L61.5 83.86L60.94 84.11L60.37 84.35L59.81 84.58L59.23 84.8L58.66 85.02L58.08 85.22L57.49 85.42L56.91 85.62L56.31 85.8L55.72 85.98L55.12 86.14L54.52 86.3L53.91 86.45L53.31 86.59L52.7 86.73L52.08 86.85L51.46 86.97L50.84 87.08L50.22 87.17L49.59 87.26L48.96 87.34L48.33 87.41L47.69 87.48L47.05 87.53L46.41 87.57L45.77 87.61L45.12 87.63L44.48 87.65L43.82 87.65L42.02 87.61L40.23 87.5L38.46 87.33L36.72 87.08L34.99 86.76L33.29 86.38L31.62 85.93L29.97 85.42L28.36 84.84L26.77 84.21L25.21 83.51L23.69 82.76L22.2 81.95L20.74 81.08L19.32 80.17L17.94 79.19L16.6 78.17L15.3 77.1L14.05 75.98L12.84 74.81L11.67 73.6L10.55 72.35L9.48 71.05L8.46 69.71L7.49 68.33L6.57 66.91L5.7 65.46L4.89 63.97L4.14 62.44L3.44 60.88L2.81 59.3L2.23 57.68L1.72 56.03L1.27 54.36L0.89 52.66L0.57 50.93L0.32 49.19L0.15 47.42L0.04 45.63L0 43.83L0.04 42.02L0.15 40.23L0.32 38.46L0.57 36.72L0.89 34.99L1.27 33.29L1.72 31.62L2.23 29.97L2.81 28.35L3.44 26.77L4.14 25.21L4.89 23.68L5.7 22.19L6.57 20.74L7.49 19.32L8.46 17.94L9.48 16.6L10.55 15.3L11.67 14.05L12.84 12.84L14.05 11.67L15.3 10.55L16.6 9.48L17.94 8.46L19.32 7.48L20.74 6.57L22.2 5.7L23.69 4.89L25.21 4.14L26.77 3.44L28.36 2.81L29.97 2.23L31.62 1.72L33.29 1.27L34.99 0.89L36.72 0.57L38.46 0.32L40.23 0.15L42.02 0.04L43.82 0L45.63 0.04L47.42 0.15ZM41.19 12.63L39.9 12.77L38.62 12.95L37.36 13.19L36.12 13.48L34.89 13.81L33.69 14.2L32.51 14.63L31.35 15.1L30.22 15.63L29.11 16.19L28.03 16.8L26.97 17.44L25.94 18.13L24.94 18.86L23.97 19.62L23.04 20.42L22.13 21.26L21.26 22.13L20.42 23.04L19.62 23.97L18.86 24.94L18.13 25.94L17.44 26.97L16.8 28.03L16.19 29.11L15.63 30.22L15.1 31.35L14.63 32.51L14.2 33.69L13.81 34.89L13.48 36.12L13.19 37.36L12.95 38.62L12.77 39.9L12.63 41.19L12.55 42.5L12.52 43.83L12.55 45.15L12.63 46.46L12.77 47.75L12.95 49.03L13.19 50.29L13.48 51.53L13.81 52.76L14.2 53.96L14.63 55.14L15.1 56.3L15.63 57.43L16.19 58.54L16.8 59.63L17.44 60.68L18.13 61.71L18.86 62.71L19.62 63.68L20.42 64.62L21.26 65.52L22.13 66.39L23.04 67.23L23.97 68.03L24.94 68.79L25.94 69.52L26.97 70.21L28.03 70.86L29.11 71.46L30.22 72.03L31.35 72.55L32.51 73.02L33.69 73.45L34.89 73.84L36.12 74.17L37.36 74.46L38.62 74.7L39.9 74.88L41.19 75.02L42.5 75.1L43.82 75.13L45.15 75.1L46.46 75.02L47.75 74.88L49.03 74.7L50.29 74.46L51.53 74.17L52.76 73.84L53.96 73.45L55.14 73.02L56.3 72.55L57.43 72.03L58.54 71.46L59.63 70.86L60.68 70.21L61.71 69.52L62.71 68.79L63.68 68.03L64.62 67.23L65.52 66.39L66.39 65.52L67.23 64.62L68.03 63.68L68.79 62.71L69.52 61.71L70.21 60.68L70.85 59.63L71.46 58.54L72.02 57.43L72.55 56.3L73.02 55.14L73.45 53.96L73.84 52.76L74.17 51.53L74.46 50.29L74.7 49.03L74.88 47.75L75.02 46.46L75.1 45.15L75.13 43.83L75.1 42.5L75.02 41.19L74.88 39.9L74.7 38.62L74.46 37.36L74.17 36.12L73.84 34.89L73.45 33.69L73.02 32.51L72.55 31.35L72.02 30.22L71.46 29.11L70.85 28.03L70.21 26.97L69.52 25.94L68.79 24.94L68.03 23.97L67.23 23.04L66.39 22.13L65.52 21.26L64.62 20.42L63.68 19.62L62.71 18.86L61.71 18.13L60.68 17.44L59.63 16.8L58.54 16.19L57.43 15.63L56.3 15.1L55.14 14.63L53.96 14.2L52.76 13.81L51.53 13.48L50.29 13.19L49.03 12.95L47.75 12.77L46.46 12.63L45.15 12.55L43.82 12.52L42.5 12.55L41.19 12.63Z"></path>
		<path d="M64 40L64 50L49 50L49 65L39 65L39 50L24 50L24 40L39 40L39 25L49 25L49 40L64 40Z"></path>
	</symbol>

	<symbol id="scrubber_off" viewBox="0 -10 110 110">
		<path d="M47.42 0.15L49.19 0.32L50.93 0.57L52.66 0.89L54.36 1.27L56.03 1.72L57.68 2.23L59.3 2.81L60.88 3.44L62.44 4.14L63.97 4.89L65.46 5.7L66.91 6.57L68.33 7.48L69.71 8.46L71.05 9.48L72.35 10.55L73.6 11.67L74.81 12.84L75.98 14.05L77.1 15.3L78.17 16.6L79.19 17.94L80.17 19.32L81.08 20.74L81.95 22.19L82.76 23.68L83.51 25.21L84.21 26.77L84.84 28.35L85.42 29.97L85.93 31.62L86.38 33.29L86.76 34.99L87.08 36.72L87.33 38.46L87.5 40.23L87.61 42.02L87.65 43.83L87.65 44.48L87.63 45.12L87.61 45.77L87.57 46.41L87.53 47.06L87.48 47.69L87.41 48.33L87.34 48.96L87.26 49.59L87.17 50.22L87.08 50.84L86.97 51.46L86.85 52.08L86.73 52.7L86.59 53.31L86.45 53.92L86.3 54.52L86.14 55.12L85.98 55.72L85.8 56.31L85.62 56.91L85.42 57.49L85.22 58.08L85.02 58.66L84.8 59.23L84.58 59.81L84.35 60.38L84.11 60.94L83.86 61.5L83.61 62.06L83.35 62.61L83.08 63.16L82.8 63.7L82.52 64.25L82.23 64.78L81.93 65.31L81.63 65.84L81.32 66.36L81 66.88L80.67 67.39L97.25 83.97L97.52 84.25L97.77 84.53L98.01 84.83L98.24 85.13L98.45 85.44L98.65 85.76L98.84 86.08L99.01 86.4L99.17 86.74L99.31 87.07L99.44 87.41L99.56 87.76L99.66 88.11L99.75 88.46L99.83 88.81L99.89 89.17L99.94 89.53L99.97 89.89L99.99 90.25L100 90.61L99.99 90.97L99.97 91.33L99.94 91.69L99.89 92.05L99.83 92.4L99.75 92.76L99.66 93.11L99.56 93.46L99.44 93.8L99.31 94.14L99.17 94.48L99.01 94.81L98.84 95.14L98.65 95.46L98.45 95.78L98.24 96.08L98.01 96.39L97.77 96.68L97.52 96.97L97.25 97.25L96.97 97.52L96.68 97.77L96.39 98.01L96.08 98.24L95.78 98.45L95.46 98.65L95.14 98.84L94.81 99.01L94.48 99.17L94.14 99.31L93.8 99.44L93.46 99.56L93.11 99.66L92.76 99.75L92.4 99.83L92.04 99.89L91.69 99.94L91.33 99.97L90.97 99.99L90.61 100L90.25 99.99L89.89 99.97L89.53 99.94L89.17 99.89L88.81 99.83L88.46 99.75L88.11 99.66L87.76 99.56L87.41 99.44L87.07 99.31L86.74 99.17L86.4 99.01L86.08 98.84L85.76 98.65L85.44 98.45L85.13 98.24L84.83 98.01L84.53 97.77L84.25 97.52L83.97 97.25L67.39 80.67L66.88 81L66.36 81.32L65.84 81.63L65.31 81.93L64.78 82.23L64.24 82.52L63.7 82.8L63.16 83.08L62.61 83.35L62.06 83.61L61.5 83.86L60.94 84.11L60.37 84.35L59.81 84.58L59.23 84.8L58.66 85.02L58.08 85.22L57.49 85.42L56.91 85.62L56.31 85.8L55.72 85.98L55.12 86.14L54.52 86.3L53.91 86.45L53.31 86.59L52.7 86.73L52.08 86.85L51.46 86.97L50.84 87.08L50.22 87.17L49.59 87.26L48.96 87.34L48.33 87.41L47.69 87.48L47.05 87.53L46.41 87.57L45.77 87.61L45.12 87.63L44.48 87.65L43.82 87.65L42.02 87.61L40.23 87.5L38.46 87.33L36.72 87.08L34.99 86.76L33.29 86.38L31.62 85.93L29.97 85.42L28.36 84.84L26.77 84.21L25.21 83.51L23.69 82.76L22.2 81.95L20.74 81.08L19.32 80.17L17.94 79.19L16.6 78.17L15.3 77.1L14.05 75.98L12.84 74.81L11.67 73.6L10.55 72.35L9.48 71.05L8.46 69.71L7.49 68.33L6.57 66.91L5.7 65.46L4.89 63.97L4.14 62.44L3.44 60.88L2.81 59.3L2.23 57.68L1.72 56.03L1.27 54.36L0.89 52.66L0.57 50.93L0.32 49.19L0.15 47.42L0.04 45.63L0 43.83L0.04 42.02L0.15 40.23L0.32 38.46L0.57 36.72L0.89 34.99L1.27 33.29L1.72 31.62L2.23 29.97L2.81 28.35L3.44 26.77L4.14 25.21L4.89 23.68L5.7 22.19L6.57 20.74L7.49 19.32L8.46 17.94L9.48 16.6L10.55 15.3L11.67 14.05L12.84 12.84L14.05 11.67L15.3 10.55L16.6 9.48L17.94 8.46L19.32 7.48L20.74 6.57L22.2 5.7L23.69 4.89L25.21 4.14L26.77 3.44L28.36 2.81L29.97 2.23L31.62 1.72L33.29 1.27L34.99 0.89L36.72 0.57L38.46 0.32L40.23 0.15L42.02 0.04L43.82 0L45.63 0.04L47.42 0.15ZM41.19 12.63L39.9 12.77L38.62 12.95L37.36 13.19L36.12 13.48L34.89 13.81L33.69 14.2L32.51 14.63L31.35 15.1L30.22 15.63L29.11 16.19L28.03 16.8L26.97 17.44L25.94 18.13L24.94 18.86L23.97 19.62L23.04 20.42L22.13 21.26L21.26 22.13L20.42 23.04L19.62 23.97L18.86 24.94L18.13 25.94L17.44 26.97L16.8 28.03L16.19 29.11L15.63 30.22L15.1 31.35L14.63 32.51L14.2 33.69L13.81 34.89L13.48 36.12L13.19 37.36L12.95 38.62L12.77 39.9L12.63 41.19L12.55 42.5L12.52 43.83L12.55 45.15L12.63 46.46L12.77 47.75L12.95 49.03L13.19 50.29L13.48 51.53L13.81 52.76L14.2 53.96L14.63 55.14L15.1 56.3L15.63 57.43L16.19 58.54L16.8 59.63L17.44 60.68L18.13 61.71L18.86 62.71L19.62 63.68L20.42 64.62L21.26 65.52L22.13 66.39L23.04 67.23L23.97 68.03L24.94 68.79L25.94 69.52L26.97 70.21L28.03 70.86L29.11 71.46L30.22 72.03L31.35 72.55L32.51 73.02L33.69 73.45L34.89 73.84L36.12 74.17L37.36 74.46L38.62 74.7L39.9 74.88L41.19 75.02L42.5 75.1L43.82 75.13L45.15 75.1L46.46 75.02L47.75 74.88L49.03 74.7L50.29 74.46L51.53 74.17L52.76 73.84L53.96 73.45L55.14 73.02L56.3 72.55L57.43 72.03L58.54 71.46L59.63 70.86L60.68 70.21L61.71 69.52L62.71 68.79L63.68 68.03L64.62 67.23L65.52 66.39L66.39 65.52L67.23 64.62L68.03 63.68L68.79 62.71L69.52 61.71L70.21 60.68L70.85 59.63L71.46 58.54L72.02 57.43L72.55 56.3L73.02 55.14L73.45 53.96L73.84 52.76L74.17 51.53L74.46 50.29L74.7 49.03L74.88 47.75L75.02 46.46L75.1 45.15L75.13 43.83L75.1 42.5L75.02 41.19L74.88 39.9L74.7 38.62L74.46 37.36L74.17 36.12L73.84 34.89L73.45 33.69L73.02 32.51L72.55 31.35L72.02 30.22L71.46 29.11L70.85 28.03L70.21 26.97L69.52 25.94L68.79 24.94L68.03 23.97L67.23 23.04L66.39 22.13L65.52 21.26L64.62 20.42L63.68 19.62L62.71 18.86L61.71 18.13L60.68 17.44L59.63 16.8L58.54 16.19L57.43 15.63L56.3 15.1L55.14 14.63L53.96 14.2L52.76 13.81L51.53 13.48L50.29 13.19L49.03 12.95L47.75 12.77L46.46 12.63L45.15 12.55L43.82 12.52L42.5 12.55L41.19 12.63Z"></path>
		<path d="M24 40L64 40L64 50L24 50L24 40Z"></path>
	</symbol>
	
</svg>